<mxfile host="app.diagrams.net" agent="Mozilla/5.0 (Windows NT 10.0; Win64; x64) AppleWebKit/537.36 (KHTML, like Gecko) Chrome/131.0.0.0 Safari/537.36" version="25.0.3">
  <diagram name="Page-1" id="JIEuBk6eNEJ-VXoVeJiu">
    <mxGraphModel dx="1434" dy="1572" grid="0" gridSize="10" guides="1" tooltips="1" connect="1" arrows="1" fold="1" page="0" pageScale="1" pageWidth="850" pageHeight="1100" background="none" math="0" shadow="0">
      <root>
        <mxCell id="0" />
        <mxCell id="1" parent="0" />
        <mxCell id="1Z6e7X30IHpGSBJ1yKz--39" value="Perons" style="shape=table;startSize=30;container=1;collapsible=1;childLayout=tableLayout;fixedRows=1;rowLines=0;fontStyle=1;align=center;resizeLast=1;html=1;" parent="1" vertex="1">
          <mxGeometry x="968" y="-597" width="180" height="243" as="geometry" />
        </mxCell>
        <mxCell id="1Z6e7X30IHpGSBJ1yKz--40" value="" style="shape=tableRow;horizontal=0;startSize=0;swimlaneHead=0;swimlaneBody=0;fillColor=none;collapsible=0;dropTarget=0;points=[[0,0.5],[1,0.5]];portConstraint=eastwest;top=0;left=0;right=0;bottom=1;" parent="1Z6e7X30IHpGSBJ1yKz--39" vertex="1">
          <mxGeometry y="30" width="180" height="30" as="geometry" />
        </mxCell>
        <mxCell id="1Z6e7X30IHpGSBJ1yKz--41" value="PK" style="shape=partialRectangle;connectable=0;fillColor=none;top=0;left=0;bottom=0;right=0;fontStyle=1;overflow=hidden;whiteSpace=wrap;html=1;" parent="1Z6e7X30IHpGSBJ1yKz--40" vertex="1">
          <mxGeometry width="30" height="30" as="geometry">
            <mxRectangle width="30" height="30" as="alternateBounds" />
          </mxGeometry>
        </mxCell>
        <mxCell id="1Z6e7X30IHpGSBJ1yKz--42" value="PersonID" style="shape=partialRectangle;connectable=0;fillColor=none;top=0;left=0;bottom=0;right=0;align=left;spacingLeft=6;fontStyle=5;overflow=hidden;whiteSpace=wrap;html=1;" parent="1Z6e7X30IHpGSBJ1yKz--40" vertex="1">
          <mxGeometry x="30" width="150" height="30" as="geometry">
            <mxRectangle width="150" height="30" as="alternateBounds" />
          </mxGeometry>
        </mxCell>
        <mxCell id="1Z6e7X30IHpGSBJ1yKz--43" value="" style="shape=tableRow;horizontal=0;startSize=0;swimlaneHead=0;swimlaneBody=0;fillColor=none;collapsible=0;dropTarget=0;points=[[0,0.5],[1,0.5]];portConstraint=eastwest;top=0;left=0;right=0;bottom=0;" parent="1Z6e7X30IHpGSBJ1yKz--39" vertex="1">
          <mxGeometry y="60" width="180" height="30" as="geometry" />
        </mxCell>
        <mxCell id="1Z6e7X30IHpGSBJ1yKz--44" value="" style="shape=partialRectangle;connectable=0;fillColor=none;top=0;left=0;bottom=0;right=0;editable=1;overflow=hidden;whiteSpace=wrap;html=1;" parent="1Z6e7X30IHpGSBJ1yKz--43" vertex="1">
          <mxGeometry width="30" height="30" as="geometry">
            <mxRectangle width="30" height="30" as="alternateBounds" />
          </mxGeometry>
        </mxCell>
        <mxCell id="1Z6e7X30IHpGSBJ1yKz--45" value="Name" style="shape=partialRectangle;connectable=0;fillColor=none;top=0;left=0;bottom=0;right=0;align=left;spacingLeft=6;overflow=hidden;whiteSpace=wrap;html=1;" parent="1Z6e7X30IHpGSBJ1yKz--43" vertex="1">
          <mxGeometry x="30" width="150" height="30" as="geometry">
            <mxRectangle width="150" height="30" as="alternateBounds" />
          </mxGeometry>
        </mxCell>
        <mxCell id="1Z6e7X30IHpGSBJ1yKz--46" value="" style="shape=tableRow;horizontal=0;startSize=0;swimlaneHead=0;swimlaneBody=0;fillColor=none;collapsible=0;dropTarget=0;points=[[0,0.5],[1,0.5]];portConstraint=eastwest;top=0;left=0;right=0;bottom=0;" parent="1Z6e7X30IHpGSBJ1yKz--39" vertex="1">
          <mxGeometry y="90" width="180" height="30" as="geometry" />
        </mxCell>
        <mxCell id="1Z6e7X30IHpGSBJ1yKz--47" value="" style="shape=partialRectangle;connectable=0;fillColor=none;top=0;left=0;bottom=0;right=0;editable=1;overflow=hidden;whiteSpace=wrap;html=1;" parent="1Z6e7X30IHpGSBJ1yKz--46" vertex="1">
          <mxGeometry width="30" height="30" as="geometry">
            <mxRectangle width="30" height="30" as="alternateBounds" />
          </mxGeometry>
        </mxCell>
        <mxCell id="1Z6e7X30IHpGSBJ1yKz--48" value="DateOfBirth" style="shape=partialRectangle;connectable=0;fillColor=none;top=0;left=0;bottom=0;right=0;align=left;spacingLeft=6;overflow=hidden;whiteSpace=wrap;html=1;" parent="1Z6e7X30IHpGSBJ1yKz--46" vertex="1">
          <mxGeometry x="30" width="150" height="30" as="geometry">
            <mxRectangle width="150" height="30" as="alternateBounds" />
          </mxGeometry>
        </mxCell>
        <mxCell id="1Z6e7X30IHpGSBJ1yKz--49" value="" style="shape=tableRow;horizontal=0;startSize=0;swimlaneHead=0;swimlaneBody=0;fillColor=none;collapsible=0;dropTarget=0;points=[[0,0.5],[1,0.5]];portConstraint=eastwest;top=0;left=0;right=0;bottom=0;" parent="1Z6e7X30IHpGSBJ1yKz--39" vertex="1">
          <mxGeometry y="120" width="180" height="30" as="geometry" />
        </mxCell>
        <mxCell id="1Z6e7X30IHpGSBJ1yKz--50" value="" style="shape=partialRectangle;connectable=0;fillColor=none;top=0;left=0;bottom=0;right=0;editable=1;overflow=hidden;whiteSpace=wrap;html=1;" parent="1Z6e7X30IHpGSBJ1yKz--49" vertex="1">
          <mxGeometry width="30" height="30" as="geometry">
            <mxRectangle width="30" height="30" as="alternateBounds" />
          </mxGeometry>
        </mxCell>
        <mxCell id="1Z6e7X30IHpGSBJ1yKz--51" value="Geneder" style="shape=partialRectangle;connectable=0;fillColor=none;top=0;left=0;bottom=0;right=0;align=left;spacingLeft=6;overflow=hidden;whiteSpace=wrap;html=1;" parent="1Z6e7X30IHpGSBJ1yKz--49" vertex="1">
          <mxGeometry x="30" width="150" height="30" as="geometry">
            <mxRectangle width="150" height="30" as="alternateBounds" />
          </mxGeometry>
        </mxCell>
        <mxCell id="1Z6e7X30IHpGSBJ1yKz--54" value="" style="shape=tableRow;horizontal=0;startSize=0;swimlaneHead=0;swimlaneBody=0;fillColor=none;collapsible=0;dropTarget=0;points=[[0,0.5],[1,0.5]];portConstraint=eastwest;top=0;left=0;right=0;bottom=0;" parent="1Z6e7X30IHpGSBJ1yKz--39" vertex="1">
          <mxGeometry y="150" width="180" height="30" as="geometry" />
        </mxCell>
        <mxCell id="1Z6e7X30IHpGSBJ1yKz--55" value="" style="shape=partialRectangle;connectable=0;fillColor=none;top=0;left=0;bottom=0;right=0;editable=1;overflow=hidden;" parent="1Z6e7X30IHpGSBJ1yKz--54" vertex="1">
          <mxGeometry width="30" height="30" as="geometry">
            <mxRectangle width="30" height="30" as="alternateBounds" />
          </mxGeometry>
        </mxCell>
        <mxCell id="1Z6e7X30IHpGSBJ1yKz--56" value="PhoneNumber" style="shape=partialRectangle;connectable=0;fillColor=none;top=0;left=0;bottom=0;right=0;align=left;spacingLeft=6;overflow=hidden;" parent="1Z6e7X30IHpGSBJ1yKz--54" vertex="1">
          <mxGeometry x="30" width="150" height="30" as="geometry">
            <mxRectangle width="150" height="30" as="alternateBounds" />
          </mxGeometry>
        </mxCell>
        <mxCell id="1Z6e7X30IHpGSBJ1yKz--58" value="" style="shape=tableRow;horizontal=0;startSize=0;swimlaneHead=0;swimlaneBody=0;fillColor=none;collapsible=0;dropTarget=0;points=[[0,0.5],[1,0.5]];portConstraint=eastwest;top=0;left=0;right=0;bottom=0;" parent="1Z6e7X30IHpGSBJ1yKz--39" vertex="1">
          <mxGeometry y="180" width="180" height="30" as="geometry" />
        </mxCell>
        <mxCell id="1Z6e7X30IHpGSBJ1yKz--59" value="" style="shape=partialRectangle;connectable=0;fillColor=none;top=0;left=0;bottom=0;right=0;editable=1;overflow=hidden;" parent="1Z6e7X30IHpGSBJ1yKz--58" vertex="1">
          <mxGeometry width="30" height="30" as="geometry">
            <mxRectangle width="30" height="30" as="alternateBounds" />
          </mxGeometry>
        </mxCell>
        <mxCell id="1Z6e7X30IHpGSBJ1yKz--60" value="Email" style="shape=partialRectangle;connectable=0;fillColor=none;top=0;left=0;bottom=0;right=0;align=left;spacingLeft=6;overflow=hidden;" parent="1Z6e7X30IHpGSBJ1yKz--58" vertex="1">
          <mxGeometry x="30" width="150" height="30" as="geometry">
            <mxRectangle width="150" height="30" as="alternateBounds" />
          </mxGeometry>
        </mxCell>
        <mxCell id="1Z6e7X30IHpGSBJ1yKz--62" value="" style="shape=tableRow;horizontal=0;startSize=0;swimlaneHead=0;swimlaneBody=0;fillColor=none;collapsible=0;dropTarget=0;points=[[0,0.5],[1,0.5]];portConstraint=eastwest;top=0;left=0;right=0;bottom=0;" parent="1Z6e7X30IHpGSBJ1yKz--39" vertex="1">
          <mxGeometry y="210" width="180" height="30" as="geometry" />
        </mxCell>
        <mxCell id="1Z6e7X30IHpGSBJ1yKz--63" value="" style="shape=partialRectangle;connectable=0;fillColor=none;top=0;left=0;bottom=0;right=0;editable=1;overflow=hidden;" parent="1Z6e7X30IHpGSBJ1yKz--62" vertex="1">
          <mxGeometry width="30" height="30" as="geometry">
            <mxRectangle width="30" height="30" as="alternateBounds" />
          </mxGeometry>
        </mxCell>
        <mxCell id="1Z6e7X30IHpGSBJ1yKz--64" value="Address" style="shape=partialRectangle;connectable=0;fillColor=none;top=0;left=0;bottom=0;right=0;align=left;spacingLeft=6;overflow=hidden;" parent="1Z6e7X30IHpGSBJ1yKz--62" vertex="1">
          <mxGeometry x="30" width="150" height="30" as="geometry">
            <mxRectangle width="150" height="30" as="alternateBounds" />
          </mxGeometry>
        </mxCell>
        <mxCell id="1Z6e7X30IHpGSBJ1yKz--65" value="Doctors" style="shape=table;startSize=30;container=1;collapsible=1;childLayout=tableLayout;fixedRows=1;rowLines=0;fontStyle=1;align=center;resizeLast=1;html=1;" parent="1" vertex="1">
          <mxGeometry x="685" y="-450" width="180" height="123" as="geometry" />
        </mxCell>
        <mxCell id="1Z6e7X30IHpGSBJ1yKz--66" value="" style="shape=tableRow;horizontal=0;startSize=0;swimlaneHead=0;swimlaneBody=0;fillColor=none;collapsible=0;dropTarget=0;points=[[0,0.5],[1,0.5]];portConstraint=eastwest;top=0;left=0;right=0;bottom=1;" parent="1Z6e7X30IHpGSBJ1yKz--65" vertex="1">
          <mxGeometry y="30" width="180" height="30" as="geometry" />
        </mxCell>
        <mxCell id="1Z6e7X30IHpGSBJ1yKz--67" value="PK" style="shape=partialRectangle;connectable=0;fillColor=none;top=0;left=0;bottom=0;right=0;fontStyle=1;overflow=hidden;whiteSpace=wrap;html=1;" parent="1Z6e7X30IHpGSBJ1yKz--66" vertex="1">
          <mxGeometry width="30" height="30" as="geometry">
            <mxRectangle width="30" height="30" as="alternateBounds" />
          </mxGeometry>
        </mxCell>
        <mxCell id="1Z6e7X30IHpGSBJ1yKz--68" value="DoctorId" style="shape=partialRectangle;connectable=0;fillColor=none;top=0;left=0;bottom=0;right=0;align=left;spacingLeft=6;fontStyle=5;overflow=hidden;whiteSpace=wrap;html=1;" parent="1Z6e7X30IHpGSBJ1yKz--66" vertex="1">
          <mxGeometry x="30" width="150" height="30" as="geometry">
            <mxRectangle width="150" height="30" as="alternateBounds" />
          </mxGeometry>
        </mxCell>
        <mxCell id="1Z6e7X30IHpGSBJ1yKz--69" value="" style="shape=tableRow;horizontal=0;startSize=0;swimlaneHead=0;swimlaneBody=0;fillColor=none;collapsible=0;dropTarget=0;points=[[0,0.5],[1,0.5]];portConstraint=eastwest;top=0;left=0;right=0;bottom=0;" parent="1Z6e7X30IHpGSBJ1yKz--65" vertex="1">
          <mxGeometry y="60" width="180" height="30" as="geometry" />
        </mxCell>
        <mxCell id="1Z6e7X30IHpGSBJ1yKz--70" value="" style="shape=partialRectangle;connectable=0;fillColor=none;top=0;left=0;bottom=0;right=0;editable=1;overflow=hidden;whiteSpace=wrap;html=1;" parent="1Z6e7X30IHpGSBJ1yKz--69" vertex="1">
          <mxGeometry width="30" height="30" as="geometry">
            <mxRectangle width="30" height="30" as="alternateBounds" />
          </mxGeometry>
        </mxCell>
        <mxCell id="1Z6e7X30IHpGSBJ1yKz--71" value="Specaliztion" style="shape=partialRectangle;connectable=0;fillColor=none;top=0;left=0;bottom=0;right=0;align=left;spacingLeft=6;overflow=hidden;whiteSpace=wrap;html=1;" parent="1Z6e7X30IHpGSBJ1yKz--69" vertex="1">
          <mxGeometry x="30" width="150" height="30" as="geometry">
            <mxRectangle width="150" height="30" as="alternateBounds" />
          </mxGeometry>
        </mxCell>
        <mxCell id="1Z6e7X30IHpGSBJ1yKz--226" value="" style="shape=tableRow;horizontal=0;startSize=0;swimlaneHead=0;swimlaneBody=0;fillColor=none;collapsible=0;dropTarget=0;points=[[0,0.5],[1,0.5]];portConstraint=eastwest;top=0;left=0;right=0;bottom=0;" parent="1Z6e7X30IHpGSBJ1yKz--65" vertex="1">
          <mxGeometry y="90" width="180" height="30" as="geometry" />
        </mxCell>
        <mxCell id="1Z6e7X30IHpGSBJ1yKz--227" value="FK" style="shape=partialRectangle;connectable=0;fillColor=none;top=0;left=0;bottom=0;right=0;fontStyle=0;overflow=hidden;whiteSpace=wrap;html=1;" parent="1Z6e7X30IHpGSBJ1yKz--226" vertex="1">
          <mxGeometry width="30" height="30" as="geometry">
            <mxRectangle width="30" height="30" as="alternateBounds" />
          </mxGeometry>
        </mxCell>
        <mxCell id="1Z6e7X30IHpGSBJ1yKz--228" value="&lt;span style=&quot;font-weight: 700; text-decoration-line: underline;&quot;&gt;PersonID&lt;/span&gt;" style="shape=partialRectangle;connectable=0;fillColor=none;top=0;left=0;bottom=0;right=0;align=left;spacingLeft=6;fontStyle=0;overflow=hidden;whiteSpace=wrap;html=1;" parent="1Z6e7X30IHpGSBJ1yKz--226" vertex="1">
          <mxGeometry x="30" width="150" height="30" as="geometry">
            <mxRectangle width="150" height="30" as="alternateBounds" />
          </mxGeometry>
        </mxCell>
        <mxCell id="1Z6e7X30IHpGSBJ1yKz--78" value="Patients" style="shape=table;startSize=30;container=1;collapsible=1;childLayout=tableLayout;fixedRows=1;rowLines=0;fontStyle=1;align=center;resizeLast=1;html=1;" parent="1" vertex="1">
          <mxGeometry x="688" y="-591" width="180" height="93" as="geometry" />
        </mxCell>
        <mxCell id="1Z6e7X30IHpGSBJ1yKz--79" value="" style="shape=tableRow;horizontal=0;startSize=0;swimlaneHead=0;swimlaneBody=0;fillColor=none;collapsible=0;dropTarget=0;points=[[0,0.5],[1,0.5]];portConstraint=eastwest;top=0;left=0;right=0;bottom=1;" parent="1Z6e7X30IHpGSBJ1yKz--78" vertex="1">
          <mxGeometry y="30" width="180" height="30" as="geometry" />
        </mxCell>
        <mxCell id="1Z6e7X30IHpGSBJ1yKz--80" value="PK" style="shape=partialRectangle;connectable=0;fillColor=none;top=0;left=0;bottom=0;right=0;fontStyle=1;overflow=hidden;whiteSpace=wrap;html=1;" parent="1Z6e7X30IHpGSBJ1yKz--79" vertex="1">
          <mxGeometry width="30" height="30" as="geometry">
            <mxRectangle width="30" height="30" as="alternateBounds" />
          </mxGeometry>
        </mxCell>
        <mxCell id="1Z6e7X30IHpGSBJ1yKz--81" value="PatientID" style="shape=partialRectangle;connectable=0;fillColor=none;top=0;left=0;bottom=0;right=0;align=left;spacingLeft=6;fontStyle=5;overflow=hidden;whiteSpace=wrap;html=1;" parent="1Z6e7X30IHpGSBJ1yKz--79" vertex="1">
          <mxGeometry x="30" width="150" height="30" as="geometry">
            <mxRectangle width="150" height="30" as="alternateBounds" />
          </mxGeometry>
        </mxCell>
        <mxCell id="1Z6e7X30IHpGSBJ1yKz--220" value="" style="shape=tableRow;horizontal=0;startSize=0;swimlaneHead=0;swimlaneBody=0;fillColor=none;collapsible=0;dropTarget=0;points=[[0,0.5],[1,0.5]];portConstraint=eastwest;top=0;left=0;right=0;bottom=0;" parent="1Z6e7X30IHpGSBJ1yKz--78" vertex="1">
          <mxGeometry y="60" width="180" height="30" as="geometry" />
        </mxCell>
        <mxCell id="1Z6e7X30IHpGSBJ1yKz--221" value="FK" style="shape=partialRectangle;connectable=0;fillColor=none;top=0;left=0;bottom=0;right=0;fontStyle=0;overflow=hidden;whiteSpace=wrap;html=1;" parent="1Z6e7X30IHpGSBJ1yKz--220" vertex="1">
          <mxGeometry width="30" height="30" as="geometry">
            <mxRectangle width="30" height="30" as="alternateBounds" />
          </mxGeometry>
        </mxCell>
        <mxCell id="1Z6e7X30IHpGSBJ1yKz--222" value="&lt;span style=&quot;font-weight: 700; text-decoration-line: underline;&quot;&gt;PersonID&lt;/span&gt;" style="shape=partialRectangle;connectable=0;fillColor=none;top=0;left=0;bottom=0;right=0;align=left;spacingLeft=6;fontStyle=0;overflow=hidden;whiteSpace=wrap;html=1;" parent="1Z6e7X30IHpGSBJ1yKz--220" vertex="1">
          <mxGeometry x="30" width="150" height="30" as="geometry">
            <mxRectangle width="150" height="30" as="alternateBounds" />
          </mxGeometry>
        </mxCell>
        <mxCell id="1Z6e7X30IHpGSBJ1yKz--93" value="Appointments" style="shape=table;startSize=30;container=1;collapsible=1;childLayout=tableLayout;fixedRows=1;rowLines=0;fontStyle=1;align=center;resizeLast=1;html=1;" parent="1" vertex="1">
          <mxGeometry x="271" y="-549" width="180" height="235" as="geometry" />
        </mxCell>
        <mxCell id="1Z6e7X30IHpGSBJ1yKz--94" value="" style="shape=tableRow;horizontal=0;startSize=0;swimlaneHead=0;swimlaneBody=0;fillColor=none;collapsible=0;dropTarget=0;points=[[0,0.5],[1,0.5]];portConstraint=eastwest;top=0;left=0;right=0;bottom=1;" parent="1Z6e7X30IHpGSBJ1yKz--93" vertex="1">
          <mxGeometry y="30" width="180" height="30" as="geometry" />
        </mxCell>
        <mxCell id="1Z6e7X30IHpGSBJ1yKz--95" value="PK" style="shape=partialRectangle;connectable=0;fillColor=none;top=0;left=0;bottom=0;right=0;fontStyle=1;overflow=hidden;whiteSpace=wrap;html=1;" parent="1Z6e7X30IHpGSBJ1yKz--94" vertex="1">
          <mxGeometry width="30" height="30" as="geometry">
            <mxRectangle width="30" height="30" as="alternateBounds" />
          </mxGeometry>
        </mxCell>
        <mxCell id="1Z6e7X30IHpGSBJ1yKz--96" value="&lt;span style=&quot;text-align: center; text-wrap-mode: nowrap;&quot;&gt;AppointmentsID&lt;/span&gt;" style="shape=partialRectangle;connectable=0;fillColor=none;top=0;left=0;bottom=0;right=0;align=left;spacingLeft=6;fontStyle=5;overflow=hidden;whiteSpace=wrap;html=1;" parent="1Z6e7X30IHpGSBJ1yKz--94" vertex="1">
          <mxGeometry x="30" width="150" height="30" as="geometry">
            <mxRectangle width="150" height="30" as="alternateBounds" />
          </mxGeometry>
        </mxCell>
        <mxCell id="1Z6e7X30IHpGSBJ1yKz--107" value="" style="shape=tableRow;horizontal=0;startSize=0;swimlaneHead=0;swimlaneBody=0;fillColor=none;collapsible=0;dropTarget=0;points=[[0,0.5],[1,0.5]];portConstraint=eastwest;top=0;left=0;right=0;bottom=0;" parent="1Z6e7X30IHpGSBJ1yKz--93" vertex="1">
          <mxGeometry y="60" width="180" height="30" as="geometry" />
        </mxCell>
        <mxCell id="1Z6e7X30IHpGSBJ1yKz--108" value="FK" style="shape=partialRectangle;connectable=0;fillColor=none;top=0;left=0;bottom=0;right=0;fontStyle=0;overflow=hidden;whiteSpace=wrap;html=1;" parent="1Z6e7X30IHpGSBJ1yKz--107" vertex="1">
          <mxGeometry width="30" height="30" as="geometry">
            <mxRectangle width="30" height="30" as="alternateBounds" />
          </mxGeometry>
        </mxCell>
        <mxCell id="1Z6e7X30IHpGSBJ1yKz--109" value="&lt;span style=&quot;font-weight: 700; text-decoration-line: underline;&quot;&gt;PatientID&lt;/span&gt;" style="shape=partialRectangle;connectable=0;fillColor=none;top=0;left=0;bottom=0;right=0;align=left;spacingLeft=6;fontStyle=0;overflow=hidden;whiteSpace=wrap;html=1;" parent="1Z6e7X30IHpGSBJ1yKz--107" vertex="1">
          <mxGeometry x="30" width="150" height="30" as="geometry">
            <mxRectangle width="150" height="30" as="alternateBounds" />
          </mxGeometry>
        </mxCell>
        <mxCell id="1Z6e7X30IHpGSBJ1yKz--111" value="" style="shape=tableRow;horizontal=0;startSize=0;swimlaneHead=0;swimlaneBody=0;fillColor=none;collapsible=0;dropTarget=0;points=[[0,0.5],[1,0.5]];portConstraint=eastwest;top=0;left=0;right=0;bottom=0;" parent="1Z6e7X30IHpGSBJ1yKz--93" vertex="1">
          <mxGeometry y="90" width="180" height="30" as="geometry" />
        </mxCell>
        <mxCell id="1Z6e7X30IHpGSBJ1yKz--112" value="FK" style="shape=partialRectangle;connectable=0;fillColor=none;top=0;left=0;bottom=0;right=0;fontStyle=0;overflow=hidden;whiteSpace=wrap;html=1;" parent="1Z6e7X30IHpGSBJ1yKz--111" vertex="1">
          <mxGeometry width="30" height="30" as="geometry">
            <mxRectangle width="30" height="30" as="alternateBounds" />
          </mxGeometry>
        </mxCell>
        <mxCell id="1Z6e7X30IHpGSBJ1yKz--113" value="&lt;span style=&quot;font-weight: 700; text-decoration-line: underline;&quot;&gt;DoctorId&lt;/span&gt;" style="shape=partialRectangle;connectable=0;fillColor=none;top=0;left=0;bottom=0;right=0;align=left;spacingLeft=6;fontStyle=0;overflow=hidden;whiteSpace=wrap;html=1;" parent="1Z6e7X30IHpGSBJ1yKz--111" vertex="1">
          <mxGeometry x="30" width="150" height="30" as="geometry">
            <mxRectangle width="150" height="30" as="alternateBounds" />
          </mxGeometry>
        </mxCell>
        <mxCell id="1Z6e7X30IHpGSBJ1yKz--115" value="" style="shape=tableRow;horizontal=0;startSize=0;swimlaneHead=0;swimlaneBody=0;fillColor=none;collapsible=0;dropTarget=0;points=[[0,0.5],[1,0.5]];portConstraint=eastwest;top=0;left=0;right=0;bottom=0;" parent="1Z6e7X30IHpGSBJ1yKz--93" vertex="1">
          <mxGeometry y="120" width="180" height="25" as="geometry" />
        </mxCell>
        <mxCell id="1Z6e7X30IHpGSBJ1yKz--116" value="" style="shape=partialRectangle;connectable=0;fillColor=none;top=0;left=0;bottom=0;right=0;editable=1;overflow=hidden;" parent="1Z6e7X30IHpGSBJ1yKz--115" vertex="1">
          <mxGeometry width="30" height="25" as="geometry">
            <mxRectangle width="30" height="25" as="alternateBounds" />
          </mxGeometry>
        </mxCell>
        <mxCell id="1Z6e7X30IHpGSBJ1yKz--117" value="Appointments_DateTime" style="shape=partialRectangle;connectable=0;fillColor=none;top=0;left=0;bottom=0;right=0;align=left;spacingLeft=6;overflow=hidden;" parent="1Z6e7X30IHpGSBJ1yKz--115" vertex="1">
          <mxGeometry x="30" width="150" height="25" as="geometry">
            <mxRectangle width="150" height="25" as="alternateBounds" />
          </mxGeometry>
        </mxCell>
        <mxCell id="1Z6e7X30IHpGSBJ1yKz--123" value="" style="shape=tableRow;horizontal=0;startSize=0;swimlaneHead=0;swimlaneBody=0;fillColor=none;collapsible=0;dropTarget=0;points=[[0,0.5],[1,0.5]];portConstraint=eastwest;top=0;left=0;right=0;bottom=0;" parent="1Z6e7X30IHpGSBJ1yKz--93" vertex="1">
          <mxGeometry y="145" width="180" height="30" as="geometry" />
        </mxCell>
        <mxCell id="1Z6e7X30IHpGSBJ1yKz--124" value="" style="shape=partialRectangle;connectable=0;fillColor=none;top=0;left=0;bottom=0;right=0;editable=1;overflow=hidden;" parent="1Z6e7X30IHpGSBJ1yKz--123" vertex="1">
          <mxGeometry width="30" height="30" as="geometry">
            <mxRectangle width="30" height="30" as="alternateBounds" />
          </mxGeometry>
        </mxCell>
        <mxCell id="1Z6e7X30IHpGSBJ1yKz--125" value="Appointment Status" style="shape=partialRectangle;connectable=0;fillColor=none;top=0;left=0;bottom=0;right=0;align=left;spacingLeft=6;overflow=hidden;" parent="1Z6e7X30IHpGSBJ1yKz--123" vertex="1">
          <mxGeometry x="30" width="150" height="30" as="geometry">
            <mxRectangle width="150" height="30" as="alternateBounds" />
          </mxGeometry>
        </mxCell>
        <mxCell id="1Z6e7X30IHpGSBJ1yKz--232" value="" style="shape=tableRow;horizontal=0;startSize=0;swimlaneHead=0;swimlaneBody=0;fillColor=none;collapsible=0;dropTarget=0;points=[[0,0.5],[1,0.5]];portConstraint=eastwest;top=0;left=0;right=0;bottom=0;" parent="1Z6e7X30IHpGSBJ1yKz--93" vertex="1">
          <mxGeometry y="175" width="180" height="30" as="geometry" />
        </mxCell>
        <mxCell id="1Z6e7X30IHpGSBJ1yKz--233" value="FK" style="shape=partialRectangle;connectable=0;fillColor=none;top=0;left=0;bottom=0;right=0;fontStyle=0;overflow=hidden;whiteSpace=wrap;html=1;" parent="1Z6e7X30IHpGSBJ1yKz--232" vertex="1">
          <mxGeometry width="30" height="30" as="geometry">
            <mxRectangle width="30" height="30" as="alternateBounds" />
          </mxGeometry>
        </mxCell>
        <mxCell id="1Z6e7X30IHpGSBJ1yKz--234" value="&lt;span style=&quot;font-weight: 700; text-decoration-line: underline;&quot;&gt;Medical Records_ID&lt;/span&gt;" style="shape=partialRectangle;connectable=0;fillColor=none;top=0;left=0;bottom=0;right=0;align=left;spacingLeft=6;fontStyle=0;overflow=hidden;whiteSpace=wrap;html=1;" parent="1Z6e7X30IHpGSBJ1yKz--232" vertex="1">
          <mxGeometry x="30" width="150" height="30" as="geometry">
            <mxRectangle width="150" height="30" as="alternateBounds" />
          </mxGeometry>
        </mxCell>
        <mxCell id="1Z6e7X30IHpGSBJ1yKz--241" value="" style="shape=tableRow;horizontal=0;startSize=0;swimlaneHead=0;swimlaneBody=0;fillColor=none;collapsible=0;dropTarget=0;points=[[0,0.5],[1,0.5]];portConstraint=eastwest;top=0;left=0;right=0;bottom=0;" parent="1Z6e7X30IHpGSBJ1yKz--93" vertex="1">
          <mxGeometry y="205" width="180" height="30" as="geometry" />
        </mxCell>
        <mxCell id="1Z6e7X30IHpGSBJ1yKz--242" value="FK" style="shape=partialRectangle;connectable=0;fillColor=none;top=0;left=0;bottom=0;right=0;fontStyle=0;overflow=hidden;whiteSpace=wrap;html=1;" parent="1Z6e7X30IHpGSBJ1yKz--241" vertex="1">
          <mxGeometry width="30" height="30" as="geometry">
            <mxRectangle width="30" height="30" as="alternateBounds" />
          </mxGeometry>
        </mxCell>
        <mxCell id="1Z6e7X30IHpGSBJ1yKz--243" value="&lt;span style=&quot;font-weight: 700; text-decoration-line: underline;&quot;&gt;PaymentsID&lt;/span&gt;" style="shape=partialRectangle;connectable=0;fillColor=none;top=0;left=0;bottom=0;right=0;align=left;spacingLeft=6;fontStyle=0;overflow=hidden;whiteSpace=wrap;html=1;" parent="1Z6e7X30IHpGSBJ1yKz--241" vertex="1">
          <mxGeometry x="30" width="150" height="30" as="geometry">
            <mxRectangle width="150" height="30" as="alternateBounds" />
          </mxGeometry>
        </mxCell>
        <mxCell id="1Z6e7X30IHpGSBJ1yKz--128" value="Medical Records" style="shape=table;startSize=30;container=1;collapsible=1;childLayout=tableLayout;fixedRows=1;rowLines=0;fontStyle=1;align=center;resizeLast=1;html=1;" parent="1" vertex="1">
          <mxGeometry x="671" y="-247" width="180" height="241" as="geometry" />
        </mxCell>
        <mxCell id="1Z6e7X30IHpGSBJ1yKz--129" value="" style="shape=tableRow;horizontal=0;startSize=0;swimlaneHead=0;swimlaneBody=0;fillColor=none;collapsible=0;dropTarget=0;points=[[0,0.5],[1,0.5]];portConstraint=eastwest;top=0;left=0;right=0;bottom=1;" parent="1Z6e7X30IHpGSBJ1yKz--128" vertex="1">
          <mxGeometry y="30" width="180" height="30" as="geometry" />
        </mxCell>
        <mxCell id="1Z6e7X30IHpGSBJ1yKz--130" value="PK" style="shape=partialRectangle;connectable=0;fillColor=none;top=0;left=0;bottom=0;right=0;fontStyle=1;overflow=hidden;whiteSpace=wrap;html=1;" parent="1Z6e7X30IHpGSBJ1yKz--129" vertex="1">
          <mxGeometry width="30" height="30" as="geometry">
            <mxRectangle width="30" height="30" as="alternateBounds" />
          </mxGeometry>
        </mxCell>
        <mxCell id="1Z6e7X30IHpGSBJ1yKz--131" value="Medical Records_ID" style="shape=partialRectangle;connectable=0;fillColor=none;top=0;left=0;bottom=0;right=0;align=left;spacingLeft=6;fontStyle=5;overflow=hidden;whiteSpace=wrap;html=1;" parent="1Z6e7X30IHpGSBJ1yKz--129" vertex="1">
          <mxGeometry x="30" width="150" height="30" as="geometry">
            <mxRectangle width="150" height="30" as="alternateBounds" />
          </mxGeometry>
        </mxCell>
        <mxCell id="1Z6e7X30IHpGSBJ1yKz--146" value="" style="shape=tableRow;horizontal=0;startSize=0;swimlaneHead=0;swimlaneBody=0;fillColor=none;collapsible=0;dropTarget=0;points=[[0,0.5],[1,0.5]];portConstraint=eastwest;top=0;left=0;right=0;bottom=0;" parent="1Z6e7X30IHpGSBJ1yKz--128" vertex="1">
          <mxGeometry y="60" width="180" height="30" as="geometry" />
        </mxCell>
        <mxCell id="1Z6e7X30IHpGSBJ1yKz--147" value="FK" style="shape=partialRectangle;connectable=0;fillColor=none;top=0;left=0;bottom=0;right=0;fontStyle=0;overflow=hidden;whiteSpace=wrap;html=1;" parent="1Z6e7X30IHpGSBJ1yKz--146" vertex="1">
          <mxGeometry width="30" height="30" as="geometry">
            <mxRectangle width="30" height="30" as="alternateBounds" />
          </mxGeometry>
        </mxCell>
        <mxCell id="1Z6e7X30IHpGSBJ1yKz--148" value="&lt;span style=&quot;font-weight: 700; text-decoration-line: underline;&quot;&gt;PatientID&lt;/span&gt;" style="shape=partialRectangle;connectable=0;fillColor=none;top=0;left=0;bottom=0;right=0;align=left;spacingLeft=6;fontStyle=0;overflow=hidden;whiteSpace=wrap;html=1;" parent="1Z6e7X30IHpGSBJ1yKz--146" vertex="1">
          <mxGeometry x="30" width="150" height="30" as="geometry">
            <mxRectangle width="150" height="30" as="alternateBounds" />
          </mxGeometry>
        </mxCell>
        <mxCell id="1Z6e7X30IHpGSBJ1yKz--150" value="" style="shape=tableRow;horizontal=0;startSize=0;swimlaneHead=0;swimlaneBody=0;fillColor=none;collapsible=0;dropTarget=0;points=[[0,0.5],[1,0.5]];portConstraint=eastwest;top=0;left=0;right=0;bottom=0;" parent="1Z6e7X30IHpGSBJ1yKz--128" vertex="1">
          <mxGeometry y="90" width="180" height="30" as="geometry" />
        </mxCell>
        <mxCell id="1Z6e7X30IHpGSBJ1yKz--151" value="FK" style="shape=partialRectangle;connectable=0;fillColor=none;top=0;left=0;bottom=0;right=0;fontStyle=0;overflow=hidden;whiteSpace=wrap;html=1;" parent="1Z6e7X30IHpGSBJ1yKz--150" vertex="1">
          <mxGeometry width="30" height="30" as="geometry">
            <mxRectangle width="30" height="30" as="alternateBounds" />
          </mxGeometry>
        </mxCell>
        <mxCell id="1Z6e7X30IHpGSBJ1yKz--152" value="&lt;span style=&quot;font-weight: 700; text-decoration-line: underline;&quot;&gt;DoctorId&lt;/span&gt;" style="shape=partialRectangle;connectable=0;fillColor=none;top=0;left=0;bottom=0;right=0;align=left;spacingLeft=6;fontStyle=0;overflow=hidden;whiteSpace=wrap;html=1;" parent="1Z6e7X30IHpGSBJ1yKz--150" vertex="1">
          <mxGeometry x="30" width="150" height="30" as="geometry">
            <mxRectangle width="150" height="30" as="alternateBounds" />
          </mxGeometry>
        </mxCell>
        <mxCell id="1Z6e7X30IHpGSBJ1yKz--158" value="" style="shape=tableRow;horizontal=0;startSize=0;swimlaneHead=0;swimlaneBody=0;fillColor=none;collapsible=0;dropTarget=0;points=[[0,0.5],[1,0.5]];portConstraint=eastwest;top=0;left=0;right=0;bottom=0;" parent="1Z6e7X30IHpGSBJ1yKz--128" vertex="1">
          <mxGeometry y="120" width="180" height="30" as="geometry" />
        </mxCell>
        <mxCell id="1Z6e7X30IHpGSBJ1yKz--159" value="" style="shape=partialRectangle;connectable=0;fillColor=none;top=0;left=0;bottom=0;right=0;editable=1;overflow=hidden;" parent="1Z6e7X30IHpGSBJ1yKz--158" vertex="1">
          <mxGeometry width="30" height="30" as="geometry">
            <mxRectangle width="30" height="30" as="alternateBounds" />
          </mxGeometry>
        </mxCell>
        <mxCell id="1Z6e7X30IHpGSBJ1yKz--160" value="description " style="shape=partialRectangle;connectable=0;fillColor=none;top=0;left=0;bottom=0;right=0;align=left;spacingLeft=6;overflow=hidden;" parent="1Z6e7X30IHpGSBJ1yKz--158" vertex="1">
          <mxGeometry x="30" width="150" height="30" as="geometry">
            <mxRectangle width="150" height="30" as="alternateBounds" />
          </mxGeometry>
        </mxCell>
        <mxCell id="1Z6e7X30IHpGSBJ1yKz--154" value="" style="shape=tableRow;horizontal=0;startSize=0;swimlaneHead=0;swimlaneBody=0;fillColor=none;collapsible=0;dropTarget=0;points=[[0,0.5],[1,0.5]];portConstraint=eastwest;top=0;left=0;right=0;bottom=0;" parent="1Z6e7X30IHpGSBJ1yKz--128" vertex="1">
          <mxGeometry y="150" width="180" height="30" as="geometry" />
        </mxCell>
        <mxCell id="1Z6e7X30IHpGSBJ1yKz--155" value="" style="shape=partialRectangle;connectable=0;fillColor=none;top=0;left=0;bottom=0;right=0;editable=1;overflow=hidden;" parent="1Z6e7X30IHpGSBJ1yKz--154" vertex="1">
          <mxGeometry width="30" height="30" as="geometry">
            <mxRectangle width="30" height="30" as="alternateBounds" />
          </mxGeometry>
        </mxCell>
        <mxCell id="1Z6e7X30IHpGSBJ1yKz--156" value="diagnosis" style="shape=partialRectangle;connectable=0;fillColor=none;top=0;left=0;bottom=0;right=0;align=left;spacingLeft=6;overflow=hidden;" parent="1Z6e7X30IHpGSBJ1yKz--154" vertex="1">
          <mxGeometry x="30" width="150" height="30" as="geometry">
            <mxRectangle width="150" height="30" as="alternateBounds" />
          </mxGeometry>
        </mxCell>
        <mxCell id="1Z6e7X30IHpGSBJ1yKz--162" value="" style="shape=tableRow;horizontal=0;startSize=0;swimlaneHead=0;swimlaneBody=0;fillColor=none;collapsible=0;dropTarget=0;points=[[0,0.5],[1,0.5]];portConstraint=eastwest;top=0;left=0;right=0;bottom=0;" parent="1Z6e7X30IHpGSBJ1yKz--128" vertex="1">
          <mxGeometry y="180" width="180" height="30" as="geometry" />
        </mxCell>
        <mxCell id="1Z6e7X30IHpGSBJ1yKz--163" value="" style="shape=partialRectangle;connectable=0;fillColor=none;top=0;left=0;bottom=0;right=0;editable=1;overflow=hidden;" parent="1Z6e7X30IHpGSBJ1yKz--162" vertex="1">
          <mxGeometry width="30" height="30" as="geometry">
            <mxRectangle width="30" height="30" as="alternateBounds" />
          </mxGeometry>
        </mxCell>
        <mxCell id="1Z6e7X30IHpGSBJ1yKz--164" value="prescribed medicatio" style="shape=partialRectangle;connectable=0;fillColor=none;top=0;left=0;bottom=0;right=0;align=left;spacingLeft=6;overflow=hidden;" parent="1Z6e7X30IHpGSBJ1yKz--162" vertex="1">
          <mxGeometry x="30" width="150" height="30" as="geometry">
            <mxRectangle width="150" height="30" as="alternateBounds" />
          </mxGeometry>
        </mxCell>
        <mxCell id="1Z6e7X30IHpGSBJ1yKz--166" value="" style="shape=tableRow;horizontal=0;startSize=0;swimlaneHead=0;swimlaneBody=0;fillColor=none;collapsible=0;dropTarget=0;points=[[0,0.5],[1,0.5]];portConstraint=eastwest;top=0;left=0;right=0;bottom=0;" parent="1Z6e7X30IHpGSBJ1yKz--128" vertex="1">
          <mxGeometry y="210" width="180" height="30" as="geometry" />
        </mxCell>
        <mxCell id="1Z6e7X30IHpGSBJ1yKz--167" value="" style="shape=partialRectangle;connectable=0;fillColor=none;top=0;left=0;bottom=0;right=0;editable=1;overflow=hidden;" parent="1Z6e7X30IHpGSBJ1yKz--166" vertex="1">
          <mxGeometry width="30" height="30" as="geometry">
            <mxRectangle width="30" height="30" as="alternateBounds" />
          </mxGeometry>
        </mxCell>
        <mxCell id="1Z6e7X30IHpGSBJ1yKz--168" value=" additional note" style="shape=partialRectangle;connectable=0;fillColor=none;top=0;left=0;bottom=0;right=0;align=left;spacingLeft=6;overflow=hidden;" parent="1Z6e7X30IHpGSBJ1yKz--166" vertex="1">
          <mxGeometry x="30" width="150" height="30" as="geometry">
            <mxRectangle width="150" height="30" as="alternateBounds" />
          </mxGeometry>
        </mxCell>
        <mxCell id="1Z6e7X30IHpGSBJ1yKz--170" value="Prescription" style="shape=table;startSize=30;container=1;collapsible=1;childLayout=tableLayout;fixedRows=1;rowLines=0;fontStyle=1;align=center;resizeLast=1;html=1;" parent="1" vertex="1">
          <mxGeometry x="968" y="-253.5" width="180" height="245" as="geometry" />
        </mxCell>
        <mxCell id="1Z6e7X30IHpGSBJ1yKz--171" value="" style="shape=tableRow;horizontal=0;startSize=0;swimlaneHead=0;swimlaneBody=0;fillColor=none;collapsible=0;dropTarget=0;points=[[0,0.5],[1,0.5]];portConstraint=eastwest;top=0;left=0;right=0;bottom=1;" parent="1Z6e7X30IHpGSBJ1yKz--170" vertex="1">
          <mxGeometry y="30" width="180" height="30" as="geometry" />
        </mxCell>
        <mxCell id="1Z6e7X30IHpGSBJ1yKz--172" value="PK" style="shape=partialRectangle;connectable=0;fillColor=none;top=0;left=0;bottom=0;right=0;fontStyle=1;overflow=hidden;whiteSpace=wrap;html=1;" parent="1Z6e7X30IHpGSBJ1yKz--171" vertex="1">
          <mxGeometry width="30" height="30" as="geometry">
            <mxRectangle width="30" height="30" as="alternateBounds" />
          </mxGeometry>
        </mxCell>
        <mxCell id="1Z6e7X30IHpGSBJ1yKz--173" value="Prescription_ID" style="shape=partialRectangle;connectable=0;fillColor=none;top=0;left=0;bottom=0;right=0;align=left;spacingLeft=6;fontStyle=5;overflow=hidden;whiteSpace=wrap;html=1;" parent="1Z6e7X30IHpGSBJ1yKz--171" vertex="1">
          <mxGeometry x="30" width="150" height="30" as="geometry">
            <mxRectangle width="150" height="30" as="alternateBounds" />
          </mxGeometry>
        </mxCell>
        <mxCell id="1Z6e7X30IHpGSBJ1yKz--174" value="" style="shape=tableRow;horizontal=0;startSize=0;swimlaneHead=0;swimlaneBody=0;fillColor=none;collapsible=0;dropTarget=0;points=[[0,0.5],[1,0.5]];portConstraint=eastwest;top=0;left=0;right=0;bottom=0;" parent="1Z6e7X30IHpGSBJ1yKz--170" vertex="1">
          <mxGeometry y="60" width="180" height="30" as="geometry" />
        </mxCell>
        <mxCell id="1Z6e7X30IHpGSBJ1yKz--175" value="" style="shape=partialRectangle;connectable=0;fillColor=none;top=0;left=0;bottom=0;right=0;editable=1;overflow=hidden;whiteSpace=wrap;html=1;" parent="1Z6e7X30IHpGSBJ1yKz--174" vertex="1">
          <mxGeometry width="30" height="30" as="geometry">
            <mxRectangle width="30" height="30" as="alternateBounds" />
          </mxGeometry>
        </mxCell>
        <mxCell id="1Z6e7X30IHpGSBJ1yKz--176" value="medication nam" style="shape=partialRectangle;connectable=0;fillColor=none;top=0;left=0;bottom=0;right=0;align=left;spacingLeft=6;overflow=hidden;whiteSpace=wrap;html=1;" parent="1Z6e7X30IHpGSBJ1yKz--174" vertex="1">
          <mxGeometry x="30" width="150" height="30" as="geometry">
            <mxRectangle width="150" height="30" as="alternateBounds" />
          </mxGeometry>
        </mxCell>
        <mxCell id="1Z6e7X30IHpGSBJ1yKz--177" value="" style="shape=tableRow;horizontal=0;startSize=0;swimlaneHead=0;swimlaneBody=0;fillColor=none;collapsible=0;dropTarget=0;points=[[0,0.5],[1,0.5]];portConstraint=eastwest;top=0;left=0;right=0;bottom=0;" parent="1Z6e7X30IHpGSBJ1yKz--170" vertex="1">
          <mxGeometry y="90" width="180" height="30" as="geometry" />
        </mxCell>
        <mxCell id="1Z6e7X30IHpGSBJ1yKz--178" value="" style="shape=partialRectangle;connectable=0;fillColor=none;top=0;left=0;bottom=0;right=0;editable=1;overflow=hidden;whiteSpace=wrap;html=1;" parent="1Z6e7X30IHpGSBJ1yKz--177" vertex="1">
          <mxGeometry width="30" height="30" as="geometry">
            <mxRectangle width="30" height="30" as="alternateBounds" />
          </mxGeometry>
        </mxCell>
        <mxCell id="1Z6e7X30IHpGSBJ1yKz--179" value="&lt;div&gt;&lt;span style=&quot;background-color: initial;&quot;&gt;dosag&lt;/span&gt;&lt;/div&gt;" style="shape=partialRectangle;connectable=0;fillColor=none;top=0;left=0;bottom=0;right=0;align=left;spacingLeft=6;overflow=hidden;whiteSpace=wrap;html=1;" parent="1Z6e7X30IHpGSBJ1yKz--177" vertex="1">
          <mxGeometry x="30" width="150" height="30" as="geometry">
            <mxRectangle width="150" height="30" as="alternateBounds" />
          </mxGeometry>
        </mxCell>
        <mxCell id="1Z6e7X30IHpGSBJ1yKz--180" value="" style="shape=tableRow;horizontal=0;startSize=0;swimlaneHead=0;swimlaneBody=0;fillColor=none;collapsible=0;dropTarget=0;points=[[0,0.5],[1,0.5]];portConstraint=eastwest;top=0;left=0;right=0;bottom=0;" parent="1Z6e7X30IHpGSBJ1yKz--170" vertex="1">
          <mxGeometry y="120" width="180" height="30" as="geometry" />
        </mxCell>
        <mxCell id="1Z6e7X30IHpGSBJ1yKz--181" value="" style="shape=partialRectangle;connectable=0;fillColor=none;top=0;left=0;bottom=0;right=0;editable=1;overflow=hidden;whiteSpace=wrap;html=1;" parent="1Z6e7X30IHpGSBJ1yKz--180" vertex="1">
          <mxGeometry width="30" height="30" as="geometry">
            <mxRectangle width="30" height="30" as="alternateBounds" />
          </mxGeometry>
        </mxCell>
        <mxCell id="1Z6e7X30IHpGSBJ1yKz--182" value="&lt;div&gt;&lt;span style=&quot;background-color: initial;&quot;&gt;frequenc&lt;/span&gt;&lt;/div&gt;" style="shape=partialRectangle;connectable=0;fillColor=none;top=0;left=0;bottom=0;right=0;align=left;spacingLeft=6;overflow=hidden;whiteSpace=wrap;html=1;" parent="1Z6e7X30IHpGSBJ1yKz--180" vertex="1">
          <mxGeometry x="30" width="150" height="30" as="geometry">
            <mxRectangle width="150" height="30" as="alternateBounds" />
          </mxGeometry>
        </mxCell>
        <mxCell id="1Z6e7X30IHpGSBJ1yKz--184" value="" style="shape=tableRow;horizontal=0;startSize=0;swimlaneHead=0;swimlaneBody=0;fillColor=none;collapsible=0;dropTarget=0;points=[[0,0.5],[1,0.5]];portConstraint=eastwest;top=0;left=0;right=0;bottom=0;" parent="1Z6e7X30IHpGSBJ1yKz--170" vertex="1">
          <mxGeometry y="150" width="180" height="30" as="geometry" />
        </mxCell>
        <mxCell id="1Z6e7X30IHpGSBJ1yKz--185" value="FK" style="shape=partialRectangle;connectable=0;fillColor=none;top=0;left=0;bottom=0;right=0;fontStyle=0;overflow=hidden;whiteSpace=wrap;html=1;" parent="1Z6e7X30IHpGSBJ1yKz--184" vertex="1">
          <mxGeometry width="30" height="30" as="geometry">
            <mxRectangle width="30" height="30" as="alternateBounds" />
          </mxGeometry>
        </mxCell>
        <mxCell id="1Z6e7X30IHpGSBJ1yKz--186" value="&lt;span style=&quot;font-weight: 700; text-decoration-line: underline;&quot;&gt;Medical Records_ID&lt;/span&gt;" style="shape=partialRectangle;connectable=0;fillColor=none;top=0;left=0;bottom=0;right=0;align=left;spacingLeft=6;fontStyle=0;overflow=hidden;whiteSpace=wrap;html=1;" parent="1Z6e7X30IHpGSBJ1yKz--184" vertex="1">
          <mxGeometry x="30" width="150" height="30" as="geometry">
            <mxRectangle width="150" height="30" as="alternateBounds" />
          </mxGeometry>
        </mxCell>
        <mxCell id="1Z6e7X30IHpGSBJ1yKz--192" value="" style="shape=tableRow;horizontal=0;startSize=0;swimlaneHead=0;swimlaneBody=0;fillColor=none;collapsible=0;dropTarget=0;points=[[0,0.5],[1,0.5]];portConstraint=eastwest;top=0;left=0;right=0;bottom=0;" parent="1Z6e7X30IHpGSBJ1yKz--170" vertex="1">
          <mxGeometry y="180" width="180" height="30" as="geometry" />
        </mxCell>
        <mxCell id="1Z6e7X30IHpGSBJ1yKz--193" value="" style="shape=partialRectangle;connectable=0;fillColor=none;top=0;left=0;bottom=0;right=0;editable=1;overflow=hidden;" parent="1Z6e7X30IHpGSBJ1yKz--192" vertex="1">
          <mxGeometry width="30" height="30" as="geometry">
            <mxRectangle width="30" height="30" as="alternateBounds" />
          </mxGeometry>
        </mxCell>
        <mxCell id="1Z6e7X30IHpGSBJ1yKz--194" value="StartDate" style="shape=partialRectangle;connectable=0;fillColor=none;top=0;left=0;bottom=0;right=0;align=left;spacingLeft=6;overflow=hidden;" parent="1Z6e7X30IHpGSBJ1yKz--192" vertex="1">
          <mxGeometry x="30" width="150" height="30" as="geometry">
            <mxRectangle width="150" height="30" as="alternateBounds" />
          </mxGeometry>
        </mxCell>
        <mxCell id="1Z6e7X30IHpGSBJ1yKz--188" value="" style="shape=tableRow;horizontal=0;startSize=0;swimlaneHead=0;swimlaneBody=0;fillColor=none;collapsible=0;dropTarget=0;points=[[0,0.5],[1,0.5]];portConstraint=eastwest;top=0;left=0;right=0;bottom=0;" parent="1Z6e7X30IHpGSBJ1yKz--170" vertex="1">
          <mxGeometry y="210" width="180" height="30" as="geometry" />
        </mxCell>
        <mxCell id="1Z6e7X30IHpGSBJ1yKz--189" value="" style="shape=partialRectangle;connectable=0;fillColor=none;top=0;left=0;bottom=0;right=0;editable=1;overflow=hidden;" parent="1Z6e7X30IHpGSBJ1yKz--188" vertex="1">
          <mxGeometry width="30" height="30" as="geometry">
            <mxRectangle width="30" height="30" as="alternateBounds" />
          </mxGeometry>
        </mxCell>
        <mxCell id="1Z6e7X30IHpGSBJ1yKz--190" value="EndDate" style="shape=partialRectangle;connectable=0;fillColor=none;top=0;left=0;bottom=0;right=0;align=left;spacingLeft=6;overflow=hidden;" parent="1Z6e7X30IHpGSBJ1yKz--188" vertex="1">
          <mxGeometry x="30" width="150" height="30" as="geometry">
            <mxRectangle width="150" height="30" as="alternateBounds" />
          </mxGeometry>
        </mxCell>
        <mxCell id="1Z6e7X30IHpGSBJ1yKz--197" value="Payments" style="shape=table;startSize=30;container=1;collapsible=1;childLayout=tableLayout;fixedRows=1;rowLines=0;fontStyle=1;align=center;resizeLast=1;html=1;" parent="1" vertex="1">
          <mxGeometry x="271" y="-218" width="180" height="150" as="geometry" />
        </mxCell>
        <mxCell id="1Z6e7X30IHpGSBJ1yKz--198" value="" style="shape=tableRow;horizontal=0;startSize=0;swimlaneHead=0;swimlaneBody=0;fillColor=none;collapsible=0;dropTarget=0;points=[[0,0.5],[1,0.5]];portConstraint=eastwest;top=0;left=0;right=0;bottom=1;" parent="1Z6e7X30IHpGSBJ1yKz--197" vertex="1">
          <mxGeometry y="30" width="180" height="30" as="geometry" />
        </mxCell>
        <mxCell id="1Z6e7X30IHpGSBJ1yKz--199" value="PK" style="shape=partialRectangle;connectable=0;fillColor=none;top=0;left=0;bottom=0;right=0;fontStyle=1;overflow=hidden;whiteSpace=wrap;html=1;" parent="1Z6e7X30IHpGSBJ1yKz--198" vertex="1">
          <mxGeometry width="30" height="30" as="geometry">
            <mxRectangle width="30" height="30" as="alternateBounds" />
          </mxGeometry>
        </mxCell>
        <mxCell id="1Z6e7X30IHpGSBJ1yKz--200" value="PaymentsID" style="shape=partialRectangle;connectable=0;fillColor=none;top=0;left=0;bottom=0;right=0;align=left;spacingLeft=6;fontStyle=5;overflow=hidden;whiteSpace=wrap;html=1;" parent="1Z6e7X30IHpGSBJ1yKz--198" vertex="1">
          <mxGeometry x="30" width="150" height="30" as="geometry">
            <mxRectangle width="150" height="30" as="alternateBounds" />
          </mxGeometry>
        </mxCell>
        <mxCell id="1Z6e7X30IHpGSBJ1yKz--204" value="" style="shape=tableRow;horizontal=0;startSize=0;swimlaneHead=0;swimlaneBody=0;fillColor=none;collapsible=0;dropTarget=0;points=[[0,0.5],[1,0.5]];portConstraint=eastwest;top=0;left=0;right=0;bottom=0;" parent="1Z6e7X30IHpGSBJ1yKz--197" vertex="1">
          <mxGeometry y="60" width="180" height="30" as="geometry" />
        </mxCell>
        <mxCell id="1Z6e7X30IHpGSBJ1yKz--205" value="" style="shape=partialRectangle;connectable=0;fillColor=none;top=0;left=0;bottom=0;right=0;editable=1;overflow=hidden;whiteSpace=wrap;html=1;" parent="1Z6e7X30IHpGSBJ1yKz--204" vertex="1">
          <mxGeometry width="30" height="30" as="geometry">
            <mxRectangle width="30" height="30" as="alternateBounds" />
          </mxGeometry>
        </mxCell>
        <mxCell id="1Z6e7X30IHpGSBJ1yKz--206" value="payment date" style="shape=partialRectangle;connectable=0;fillColor=none;top=0;left=0;bottom=0;right=0;align=left;spacingLeft=6;overflow=hidden;whiteSpace=wrap;html=1;" parent="1Z6e7X30IHpGSBJ1yKz--204" vertex="1">
          <mxGeometry x="30" width="150" height="30" as="geometry">
            <mxRectangle width="150" height="30" as="alternateBounds" />
          </mxGeometry>
        </mxCell>
        <mxCell id="1Z6e7X30IHpGSBJ1yKz--207" value="" style="shape=tableRow;horizontal=0;startSize=0;swimlaneHead=0;swimlaneBody=0;fillColor=none;collapsible=0;dropTarget=0;points=[[0,0.5],[1,0.5]];portConstraint=eastwest;top=0;left=0;right=0;bottom=0;" parent="1Z6e7X30IHpGSBJ1yKz--197" vertex="1">
          <mxGeometry y="90" width="180" height="30" as="geometry" />
        </mxCell>
        <mxCell id="1Z6e7X30IHpGSBJ1yKz--208" value="" style="shape=partialRectangle;connectable=0;fillColor=none;top=0;left=0;bottom=0;right=0;editable=1;overflow=hidden;whiteSpace=wrap;html=1;" parent="1Z6e7X30IHpGSBJ1yKz--207" vertex="1">
          <mxGeometry width="30" height="30" as="geometry">
            <mxRectangle width="30" height="30" as="alternateBounds" />
          </mxGeometry>
        </mxCell>
        <mxCell id="1Z6e7X30IHpGSBJ1yKz--209" value="payment metho" style="shape=partialRectangle;connectable=0;fillColor=none;top=0;left=0;bottom=0;right=0;align=left;spacingLeft=6;overflow=hidden;whiteSpace=wrap;html=1;" parent="1Z6e7X30IHpGSBJ1yKz--207" vertex="1">
          <mxGeometry x="30" width="150" height="30" as="geometry">
            <mxRectangle width="150" height="30" as="alternateBounds" />
          </mxGeometry>
        </mxCell>
        <mxCell id="1Z6e7X30IHpGSBJ1yKz--211" value="" style="shape=tableRow;horizontal=0;startSize=0;swimlaneHead=0;swimlaneBody=0;fillColor=none;collapsible=0;dropTarget=0;points=[[0,0.5],[1,0.5]];portConstraint=eastwest;top=0;left=0;right=0;bottom=0;" parent="1Z6e7X30IHpGSBJ1yKz--197" vertex="1">
          <mxGeometry y="120" width="180" height="30" as="geometry" />
        </mxCell>
        <mxCell id="1Z6e7X30IHpGSBJ1yKz--212" value="" style="shape=partialRectangle;connectable=0;fillColor=none;top=0;left=0;bottom=0;right=0;editable=1;overflow=hidden;" parent="1Z6e7X30IHpGSBJ1yKz--211" vertex="1">
          <mxGeometry width="30" height="30" as="geometry">
            <mxRectangle width="30" height="30" as="alternateBounds" />
          </mxGeometry>
        </mxCell>
        <mxCell id="1Z6e7X30IHpGSBJ1yKz--213" value=" amount pai" style="shape=partialRectangle;connectable=0;fillColor=none;top=0;left=0;bottom=0;right=0;align=left;spacingLeft=6;overflow=hidden;" parent="1Z6e7X30IHpGSBJ1yKz--211" vertex="1">
          <mxGeometry x="30" width="150" height="30" as="geometry">
            <mxRectangle width="150" height="30" as="alternateBounds" />
          </mxGeometry>
        </mxCell>
        <mxCell id="1Z6e7X30IHpGSBJ1yKz--223" value="" style="edgeStyle=entityRelationEdgeStyle;fontSize=12;html=1;endArrow=ERzeroToOne;startArrow=ERmandOne;rounded=0;entryX=1;entryY=0.5;entryDx=0;entryDy=0;exitX=0;exitY=0.5;exitDx=0;exitDy=0;" parent="1" source="1Z6e7X30IHpGSBJ1yKz--40" target="1Z6e7X30IHpGSBJ1yKz--220" edge="1">
          <mxGeometry width="100" height="100" relative="1" as="geometry">
            <mxPoint x="1037" y="-767" as="sourcePoint" />
            <mxPoint x="1103" y="-594" as="targetPoint" />
          </mxGeometry>
        </mxCell>
        <mxCell id="1Z6e7X30IHpGSBJ1yKz--224" value="" style="edgeStyle=entityRelationEdgeStyle;fontSize=12;html=1;endArrow=ERzeroToOne;startArrow=ERmandOne;rounded=0;entryX=1;entryY=0.5;entryDx=0;entryDy=0;exitX=-0.014;exitY=0.988;exitDx=0;exitDy=0;exitPerimeter=0;" parent="1" source="1Z6e7X30IHpGSBJ1yKz--40" target="1Z6e7X30IHpGSBJ1yKz--226" edge="1">
          <mxGeometry width="100" height="100" relative="1" as="geometry">
            <mxPoint x="1410" y="-587" as="sourcePoint" />
            <mxPoint x="969" y="-381" as="targetPoint" />
          </mxGeometry>
        </mxCell>
        <mxCell id="1Z6e7X30IHpGSBJ1yKz--229" value="" style="edgeStyle=entityRelationEdgeStyle;fontSize=12;html=1;endArrow=ERzeroToMany;startArrow=ERmandOne;rounded=0;entryX=1;entryY=0.5;entryDx=0;entryDy=0;exitX=0;exitY=0.5;exitDx=0;exitDy=0;" parent="1" source="1Z6e7X30IHpGSBJ1yKz--79" target="1Z6e7X30IHpGSBJ1yKz--107" edge="1">
          <mxGeometry width="100" height="100" relative="1" as="geometry">
            <mxPoint x="577" y="-383" as="sourcePoint" />
            <mxPoint x="677" y="-483" as="targetPoint" />
          </mxGeometry>
        </mxCell>
        <mxCell id="1Z6e7X30IHpGSBJ1yKz--230" value="" style="edgeStyle=entityRelationEdgeStyle;fontSize=12;html=1;endArrow=ERzeroToMany;startArrow=ERmandOne;rounded=0;entryX=1;entryY=0.5;entryDx=0;entryDy=0;exitX=0;exitY=0.5;exitDx=0;exitDy=0;" parent="1" source="1Z6e7X30IHpGSBJ1yKz--66" target="1Z6e7X30IHpGSBJ1yKz--111" edge="1">
          <mxGeometry width="100" height="100" relative="1" as="geometry">
            <mxPoint x="760" y="-539" as="sourcePoint" />
            <mxPoint x="492" y="-444" as="targetPoint" />
          </mxGeometry>
        </mxCell>
        <mxCell id="1Z6e7X30IHpGSBJ1yKz--235" value="" style="edgeStyle=entityRelationEdgeStyle;fontSize=12;html=1;endArrow=ERzeroToOne;startArrow=ERmandOne;rounded=0;exitX=1;exitY=0.5;exitDx=0;exitDy=0;entryX=0;entryY=0.5;entryDx=0;entryDy=0;" parent="1" source="1Z6e7X30IHpGSBJ1yKz--232" target="1Z6e7X30IHpGSBJ1yKz--129" edge="1">
          <mxGeometry width="100" height="100" relative="1" as="geometry">
            <mxPoint x="524" y="-186" as="sourcePoint" />
            <mxPoint x="624" y="-286" as="targetPoint" />
          </mxGeometry>
        </mxCell>
        <mxCell id="1Z6e7X30IHpGSBJ1yKz--239" value="" style="edgeStyle=entityRelationEdgeStyle;fontSize=12;html=1;endArrow=ERzeroToOne;startArrow=ERmandOne;rounded=0;exitX=1;exitY=0.5;exitDx=0;exitDy=0;" parent="1" source="1Z6e7X30IHpGSBJ1yKz--129" target="1Z6e7X30IHpGSBJ1yKz--184" edge="1">
          <mxGeometry width="100" height="100" relative="1" as="geometry">
            <mxPoint x="965" y="-115" as="sourcePoint" />
            <mxPoint x="1220" y="88" as="targetPoint" />
          </mxGeometry>
        </mxCell>
        <mxCell id="1Z6e7X30IHpGSBJ1yKz--244" value="" style="edgeStyle=entityRelationEdgeStyle;fontSize=12;html=1;endArrow=ERzeroToOne;startArrow=ERmandOne;rounded=0;entryX=1;entryY=0.5;entryDx=0;entryDy=0;" parent="1" target="1Z6e7X30IHpGSBJ1yKz--198" edge="1">
          <mxGeometry width="100" height="100" relative="1" as="geometry">
            <mxPoint x="451" y="-333" as="sourcePoint" />
            <mxPoint x="516" y="-95" as="targetPoint" />
          </mxGeometry>
        </mxCell>
        <UserObject label="" tags="Background" id="mr3_9wPISB9tmNj83l86-8">
          <mxCell style="vsdxID=8;fillColor=#5b9bd5;gradientColor=none;shape=stencil(dU9bDoAgDDvN/pEdwcc9TEBZRCCIr9sLWYzGxL92bbcOsF5MHzRIsaToJ72TSgawASnJGR0pZQTYAtaDj3qMfnWKeeiLs6DZb2XDwTlRElKczCrBvGOrJfey3uKPOYPnyEDWcse3/i2VR/wQthc=);dashed=1;dashPattern=2.00 2.00;strokeColor=#ffffff;points=[];labelBackgroundColor=none;rounded=0;html=1;whiteSpace=wrap;" parent="1" vertex="1">
            <mxGeometry x="744" y="106" width="254" height="1" as="geometry" />
          </mxCell>
        </UserObject>
        <UserObject label="" tags="Background" id="mr3_9wPISB9tmNj83l86-24">
          <mxCell style="vsdxID=28;fillColor=#5b9bd5;gradientColor=none;shape=stencil(dU9bDoAgDDvN/pEdwcc9TEBZRCCIr9sLWYzGxL92bbcOsF5MHzRIsaToJ72TSgawASnJGR0pZQTYAtaDj3qMfnWKeeiLs6DZb2XDwTlRElKczCrBvGOrJfey3uKPOYPnyEDWcse3/i2VR/wQthc=);dashed=1;dashPattern=2.00 2.00;strokeColor=#ffffff;points=[];labelBackgroundColor=none;rounded=0;html=1;whiteSpace=wrap;" parent="1" vertex="1">
            <mxGeometry x="390" y="227" width="254" height="1" as="geometry" />
          </mxCell>
        </UserObject>
        <UserObject label="" tags="Background" id="mr3_9wPISB9tmNj83l86-40">
          <mxCell style="vsdxID=53;fillColor=#5b9bd5;gradientColor=none;shape=stencil(dU9bDoAgDDvN/pEdwcc9TEBZRCCIr9sLWYzGxL92bbcOsF5MHzRIsaToJ72TSgawASnJGR0pZQTYAtaDj3qMfnWKeeiLs6DZb2XDwTlRElKczCrBvGOrJfey3uKPOYPnyEDWcse3/i2VR/wQthc=);dashed=1;dashPattern=2.00 2.00;strokeColor=#ffffff;points=[];labelBackgroundColor=none;rounded=0;html=1;whiteSpace=wrap;" parent="1" vertex="1">
            <mxGeometry x="1125" y="239" width="254" height="1" as="geometry" />
          </mxCell>
        </UserObject>
        <UserObject label="" tags="Background" id="mr3_9wPISB9tmNj83l86-58">
          <mxCell style="vsdxID=78;fillColor=#5b9bd5;gradientColor=none;shape=stencil(dU9bDoAgDDvN/pEdwcc9TEBZRCCIr9sLWYzGxL92bbcOsF5MHzRIsaToJ72TSgawASnJGR0pZQTYAtaDj3qMfnWKeeiLs6DZb2XDwTlRElKczCrBvGOrJfey3uKPOYPnyEDWcse3/i2VR/wQthc=);dashed=1;dashPattern=2.00 2.00;strokeColor=#ffffff;points=[];labelBackgroundColor=none;rounded=0;html=1;whiteSpace=wrap;" parent="1" vertex="1">
            <mxGeometry x="390" y="519" width="254" height="1" as="geometry" />
          </mxCell>
        </UserObject>
        <UserObject label="" tags="Background" id="mr3_9wPISB9tmNj83l86-78">
          <mxCell style="vsdxID=108;fillColor=#5b9bd5;gradientColor=none;shape=stencil(dU9bDoAgDDvN/pEdwcc9TEBZRCCIr9sLWYzGxL92bbcOsF5MHzRIsaToJ72TSgawASnJGR0pZQTYAtaDj3qMfnWKeeiLs6DZb2XDwTlRElKczCrBvGOrJfey3uKPOYPnyEDWcse3/i2VR/wQthc=);dashed=1;dashPattern=2.00 2.00;strokeColor=#ffffff;points=[];labelBackgroundColor=none;rounded=0;html=1;whiteSpace=wrap;" parent="1" vertex="1">
            <mxGeometry x="1125" y="481" width="254" height="1" as="geometry" />
          </mxCell>
        </UserObject>
        <UserObject label="" tags="Background" id="mr3_9wPISB9tmNj83l86-85">
          <mxCell style="vsdxID=120;fillColor=none;gradientColor=none;strokeColor=none;spacingTop=3;spacingBottom=3;points=[[1,0.5,0],[0.5,0.5,0],[0.5,0,0]];labelBackgroundColor=none;rounded=0;html=1;whiteSpace=wrap;" parent="1" vertex="1">
            <mxGeometry x="972" y="582" width="254" height="163" as="geometry" />
          </mxCell>
        </UserObject>
        <mxCell id="mr3_9wPISB9tmNj83l86-86" style="vsdxID=121;fillColor=#f2f2f2;gradientColor=none;shape=stencil(nZBLDoAgDERP0z3SIyjew0SURgSD+Lu9kMZoXLhwN9O+tukAlrNpJg1SzDH4QW/URgNYgZTkjA4UkwJUgGXng+6DX1zLfmoymdXo17xh5zmRJ6Q42BWCfc2oJfdAr+Yv+AP9Cb7OJ3H/2JG1HNGz/84klThPVCc=);strokeColor=#ffffff;points=[[0,0.5,0],[1,0.5,0],[0.5,1,0],[0.5,0,0]];labelBackgroundColor=none;rounded=0;html=1;whiteSpace=wrap;" parent="mr3_9wPISB9tmNj83l86-85" vertex="1">
          <mxGeometry width="254" height="163" as="geometry" />
        </mxCell>
        <mxCell id="mr3_9wPISB9tmNj83l86-87" style="vsdxID=122;fillColor=#5b9bd5;gradientColor=none;shape=stencil(zZJNDsIgEIVPw5IE4Qi1LnuHiYWWiNAMaNvbC5lGazVduHI3P9/Mm0weU1XsYdBMipgwXPRo29QzdWRSWt9rtClHTNVMVSag7jDcfEv5AIUs0TXcy4aJ5kSZkGKm7CAoPxEKeM49XNAGGoJx3hR2d4mJw2Qjx5Ag2eDfWAfYaZ51uHHQLYPUiqPWw0f57y9z1q/e+5T6/uB9eAf9EdzI5+DlC2OdI1ut+1sf5RJ5UNUP);strokeColor=#ffffff;points=[[0,0.5,0],[1,0.5,0],[0.5,1,0],[0.5,0,0]];labelBackgroundColor=none;rounded=0;html=1;whiteSpace=wrap;" parent="mr3_9wPISB9tmNj83l86-85" vertex="1">
          <mxGeometry width="254" height="44" as="geometry" />
        </mxCell>
        <mxCell id="mr3_9wPISB9tmNj83l86-88" value="&lt;div style=&quot;font-size: 1px&quot;&gt;&lt;p style=&quot;text-align:center;margin-left:0;margin-right:0;margin-top:0px;margin-bottom:0px;text-indent:0;vertical-align:middle;direction:ltr;&quot;&gt;&lt;font style=&quot;font-size:16.93px;font-family:Calibri;color:#ffffff;direction:ltr;letter-spacing:0px;line-height:120%;opacity:1&quot;&gt;Countries&lt;br/&gt;&lt;/font&gt;&lt;/p&gt;&lt;/div&gt;" style="text;vsdxID=120;fillColor=none;gradientColor=none;strokeColor=none;spacingTop=3;spacingBottom=3;points=[[1,0.5,0],[0.5,0.5,0],[0.5,0,0]];labelBackgroundColor=none;rounded=0;html=1;whiteSpace=wrap;verticalAlign=middle;align=center;overflow=width;;html=1;" parent="mr3_9wPISB9tmNj83l86-85" vertex="1">
          <mxGeometry y="0.07" width="254" height="44.31" as="geometry" />
        </mxCell>
        <UserObject label="" tags="Background" id="mr3_9wPISB9tmNj83l86-89">
          <mxCell style="vsdxID=124;fillColor=#5b9bd5;gradientColor=none;shape=stencil(zZJNDoMgEIVPw5KEwhGsXXqHSUUlpWAGWvX2Qsam1iYsuupu3rxvfgLDVBUGGDWTIkT0Nz2ZNg5MnZmUxg0aTUwRUzVTVedR9+gfriU9QiZzdPfP3GGmOpErpFhInQTpC6HWuB36Mn+CC2gBBLwmBzewgYZQXA6JQicxc5hN4OgjROPdh2cBe83TFN5Z6LfNyQqT1uNX+s/3Kj3s4btS8L6Jzli7d47Xk1J0eapeAQ==);strokeColor=none;spacingTop=3;spacingBottom=3;spacingLeft=23;spacingRight=3;points=[[0,0.5,0],[1,0.5,0]];labelBackgroundColor=none;rounded=0;html=1;whiteSpace=wrap;" parent="1" vertex="1">
            <mxGeometry x="972" y="627" width="254" height="39" as="geometry" />
          </mxCell>
        </UserObject>
        <mxCell id="mr3_9wPISB9tmNj83l86-90" value="&lt;div style=&quot;font-size: 1px&quot;&gt;&lt;p style=&quot;text-align:left;margin-left:0;margin-right:0;margin-top:0px;margin-bottom:0px;text-indent:0;vertical-align:middle;direction:ltr;&quot;&gt;&lt;font style=&quot;font-size:14.11px;font-family:Calibri;color:#1e4e79;direction:ltr;letter-spacing:0px;line-height:120%;opacity:1&quot;&gt;PK&lt;br/&gt;&lt;/font&gt;&lt;/p&gt;&lt;/div&gt;" style="verticalAlign=middle;align=left;overflow=width;vsdxID=125;fillColor=#1e4e79;gradientColor=none;shape=stencil(lZPbcoMgEIafhkt3OCq5TtP3YBJUplQcpI19+2BppqKJE+/28P27yw6L2HFoVa8RxUPw7kNfzSW0iL0hSk3Xam9CtBA7IXasndeNd1/dJfm9msjJ+nTfU4Ux6SieJBT/JFcKIIffyHuirelmtMhpgvFztqIg8toS5EbtFS8ISPGcl9VOPp+dc+B8Tit/jln/RxNSAZVJ4e8NJJRJcq/5eB14LNRohsK7oIJxXcZa5RtdxGZFbVWTpYar1v0q/PAxZOey6M5lrXkBotyYpwSaC0oKhw0By+kKA6tepzngDXr5pwlw+Tq9vIBo/B9PbaydZ5ZnFkPpRNnpBg==);strokeColor=#ffffff;spacingTop=-3;spacingBottom=-3;spacingLeft=-3;spacingRight=-3;points=[[0,0.5,0],[1,0.5,0]];labelBackgroundColor=none;rounded=0;html=1;whiteSpace=wrap;" parent="mr3_9wPISB9tmNj83l86-89" vertex="1">
          <mxGeometry x="6" y="8" width="11" height="22" as="geometry" />
        </mxCell>
        <mxCell id="mr3_9wPISB9tmNj83l86-91" value="&lt;div style=&quot;font-size: 1px&quot;&gt;&lt;font style=&quot;font-size:14.11px;font-family:Calibri;color:#feffff;direction:ltr;letter-spacing:0px;line-height:120%;opacity:1&quot;&gt;Id&lt;br/&gt;&lt;/font&gt;&lt;/div&gt;" style="text;vsdxID=124;fillColor=none;gradientColor=none;strokeColor=none;spacingTop=3;spacingBottom=3;spacingLeft=23;spacingRight=3;points=[[0,0.5,0],[1,0.5,0]];labelBackgroundColor=none;rounded=0;html=1;whiteSpace=wrap;verticalAlign=middle;align=left;overflow=width;;html=1;" parent="mr3_9wPISB9tmNj83l86-89" vertex="1">
          <mxGeometry y="-0.52" width="254" height="39.52" as="geometry" />
        </mxCell>
        <UserObject label="" tags="Background" id="mr3_9wPISB9tmNj83l86-92">
          <mxCell style="vsdxID=127;fillColor=#5b9bd5;gradientColor=none;shape=stencil(dU9bDoAgDDvN/pEdwcc9TEBZRCCIr9sLWYzGxL92bbcOsF5MHzRIsaToJ72TSgawASnJGR0pZQTYAtaDj3qMfnWKeeiLs6DZb2XDwTlRElKczCrBvGOrJfey3uKPOYPnyEDWcse3/i2VR/wQthc=);dashed=1;dashPattern=2.00 2.00;strokeColor=#ffffff;points=[];labelBackgroundColor=none;rounded=0;html=1;whiteSpace=wrap;" parent="1" vertex="1">
            <mxGeometry x="972" y="745" width="254" height="1" as="geometry" />
          </mxCell>
        </UserObject>
        <UserObject label="" tags="Background" id="mr3_9wPISB9tmNj83l86-93">
          <mxCell style="vsdxID=128;fillColor=none;gradientColor=none;shape=stencil(zZJNDsIgEIVPw5IE4Qi1LnuHiZ22xArNgLa9vZCpUWvCwpW7efO++QmMMFUYYEKhVYjkLzjbNg7CHIXW1g1INqZImFqYqvOEPfmba1lPkMkcXf09d1i4TuUKrVZWB8X6xOho3Rv6NH+CC2gBBDonhzawgYZRWneJQie1SFhskOQjROvdhzcC9SjTFNmN0G+bsxVmxOkr/ed7lR52910peN1EEvuDSSk+NlM/AA==);strokeColor=none;spacingTop=3;spacingBottom=3;spacingLeft=23;spacingRight=3;points=[[0,0.5,0],[1,0.5,0]];labelBackgroundColor=none;rounded=0;html=1;whiteSpace=wrap;" parent="1" vertex="1">
            <mxGeometry x="972" y="666" width="254" height="39" as="geometry" />
          </mxCell>
        </UserObject>
        <mxCell id="mr3_9wPISB9tmNj83l86-94" value="&lt;div style=&quot;font-size: 1px&quot;&gt;&lt;font style=&quot;font-size:14.11px;font-family:Calibri;color:#5b9bd5;direction:ltr;letter-spacing:0px;line-height:120%;opacity:1&quot;&gt;Name&lt;br/&gt;&lt;/font&gt;&lt;/div&gt;" style="text;vsdxID=128;fillColor=none;gradientColor=none;strokeColor=none;spacingTop=3;spacingBottom=3;spacingLeft=23;spacingRight=3;points=[[0,0.5,0],[1,0.5,0]];labelBackgroundColor=none;rounded=0;html=1;whiteSpace=wrap;verticalAlign=middle;align=left;overflow=width;;html=1;" parent="mr3_9wPISB9tmNj83l86-93" vertex="1">
          <mxGeometry y="-0.52" width="254" height="39.52" as="geometry" />
        </mxCell>
        <UserObject label="" tags="Background" id="mr3_9wPISB9tmNj83l86-95">
          <mxCell style="vsdxID=134;fillColor=none;gradientColor=none;strokeColor=none;spacingTop=3;spacingBottom=3;points=[[1,0.5,0],[0.5,0.5,0],[0.5,0,0]];labelBackgroundColor=none;rounded=0;html=1;whiteSpace=wrap;" parent="1" vertex="1">
            <mxGeometry x="568" y="582" width="254" height="202" as="geometry" />
          </mxCell>
        </UserObject>
        <mxCell id="mr3_9wPISB9tmNj83l86-96" style="vsdxID=135;fillColor=#f2f2f2;gradientColor=none;shape=stencil(nZBLDoAgDERP0z3SIyjew0SURgSD+Lu9kMZoXLhwN9O+tukAlrNpJg1SzDH4QW/URgNYgZTkjA4UkwJUgGXng+6DX1zLfmoymdXo17xh5zmRJ6Q42BWCfc2oJfdAr+Yv+AP9Cb7OJ3H/2JG1HNGz/84klThPVCc=);strokeColor=#ffffff;points=[[0,0.5,0],[1,0.5,0],[0.5,1,0],[0.5,0,0]];labelBackgroundColor=none;rounded=0;html=1;whiteSpace=wrap;" parent="mr3_9wPISB9tmNj83l86-95" vertex="1">
          <mxGeometry width="254" height="202" as="geometry" />
        </mxCell>
        <mxCell id="mr3_9wPISB9tmNj83l86-97" style="vsdxID=136;fillColor=#5b9bd5;gradientColor=none;shape=stencil(zZJNDsIgEIVPw5IE4Qi1LnuHiYWWiNAMaNvbC5lGazVduHI3P9/Mm0weU1XsYdBMipgwXPRo29QzdWRSWt9rtClHTNVMVSag7jDcfEv5AIUs0TXcy4aJ5kSZkGKm7CAoPxEKeM49XNAGGoJx3hR2d4mJw2Qjx5Ag2eDfWAfYaZ51uHHQLYPUiqPWw0f57y9z1q/e+5T6/uB9eAf9EdzI5+DlC2OdI1ut+1sf5RJ5UNUP);strokeColor=#ffffff;points=[[0,0.5,0],[1,0.5,0],[0.5,1,0],[0.5,0,0]];labelBackgroundColor=none;rounded=0;html=1;whiteSpace=wrap;" parent="mr3_9wPISB9tmNj83l86-95" vertex="1">
          <mxGeometry width="254" height="44" as="geometry" />
        </mxCell>
        <mxCell id="mr3_9wPISB9tmNj83l86-98" value="&lt;div style=&quot;font-size: 1px&quot;&gt;&lt;p style=&quot;text-align:center;margin-left:0;margin-right:0;margin-top:0px;margin-bottom:0px;text-indent:0;vertical-align:middle;direction:ltr;&quot;&gt;&lt;font style=&quot;font-size:16.93px;font-family:Calibri;color:#ffffff;direction:ltr;letter-spacing:0px;line-height:120%;opacity:1&quot;&gt;Currencies&lt;br/&gt;&lt;/font&gt;&lt;/p&gt;&lt;/div&gt;" style="text;vsdxID=134;fillColor=none;gradientColor=none;strokeColor=none;spacingTop=3;spacingBottom=3;points=[[1,0.5,0],[0.5,0.5,0],[0.5,0,0]];labelBackgroundColor=none;rounded=0;html=1;whiteSpace=wrap;verticalAlign=middle;align=center;overflow=width;;html=1;" parent="mr3_9wPISB9tmNj83l86-95" vertex="1">
          <mxGeometry y="-0.45" width="254" height="44.31" as="geometry" />
        </mxCell>
        <UserObject label="" tags="Background" id="mr3_9wPISB9tmNj83l86-99">
          <mxCell style="vsdxID=138;fillColor=#5b9bd5;gradientColor=none;shape=stencil(zZJNDoMgEIVPw5KEwhGsXXqHSUUlpWAGWvX2Qsam1iYsuupu3rxvfgLDVBUGGDWTIkT0Nz2ZNg5MnZmUxg0aTUwRUzVTVedR9+gfriU9QiZzdPfP3GGmOpErpFhInQTpC6HWuB36Mn+CC2gBBLwmBzewgYZQXA6JQicxc5hN4OgjROPdh2cBe83TFN5Z6LfNyQqT1uNX+s/3Kj3s4btS8L6Jzli7d47Xk1J0eapeAQ==);strokeColor=none;spacingTop=3;spacingBottom=3;spacingLeft=23;spacingRight=3;points=[[0,0.5,0],[1,0.5,0]];labelBackgroundColor=none;rounded=0;html=1;whiteSpace=wrap;" parent="1" vertex="1">
            <mxGeometry x="568" y="627" width="254" height="39" as="geometry" />
          </mxCell>
        </UserObject>
        <mxCell id="mr3_9wPISB9tmNj83l86-100" value="&lt;div style=&quot;font-size: 1px&quot;&gt;&lt;p style=&quot;text-align:left;margin-left:0;margin-right:0;margin-top:0px;margin-bottom:0px;text-indent:0;vertical-align:middle;direction:ltr;&quot;&gt;&lt;font style=&quot;font-size:14.11px;font-family:Calibri;color:#1e4e79;direction:ltr;letter-spacing:0px;line-height:120%;opacity:1&quot;&gt;PK&lt;br/&gt;&lt;/font&gt;&lt;/p&gt;&lt;/div&gt;" style="verticalAlign=middle;align=left;overflow=width;vsdxID=139;fillColor=#1e4e79;gradientColor=none;shape=stencil(lZPbcoMgEIafhkt3OCq5TtP3YBJUplQcpI19+2BJp6KJE+/28P27yw6L2HFoVa8RxUPw7kNfzSW0iL0hSk3Xam9CtBA7IXasndeNd1/dJfm9msjJ+nTfU4Ux6SieJBT/JFcKIIffyHuirelmtMhpgvFztqIg8toS5EbtFS8ISPGcl9VOPp+dc+B8Tit/jll/pwmpgLKk8H8NJJQkhe7U43XgsVCjGQrvggrGdRlrlW90EZsVtVVNlhquWver8MPHkJ3LojuXteYFiHJjnhJoLigpHDYELKcrDKx6neaAN+jlnybA5ev08gKi8X88tbF2nlmeWQylE2WnGw==);strokeColor=#ffffff;spacingTop=-3;spacingBottom=-3;spacingLeft=-3;spacingRight=-3;points=[[0,0.5,0],[1,0.5,0]];labelBackgroundColor=none;rounded=0;html=1;whiteSpace=wrap;" parent="mr3_9wPISB9tmNj83l86-99" vertex="1">
          <mxGeometry x="6" y="8" width="11" height="22" as="geometry" />
        </mxCell>
        <mxCell id="mr3_9wPISB9tmNj83l86-101" value="&lt;div style=&quot;font-size: 1px&quot;&gt;&lt;font style=&quot;font-size:14.11px;font-family:Calibri;color:#feffff;direction:ltr;letter-spacing:0px;line-height:120%;opacity:1&quot;&gt;Id&lt;br/&gt;&lt;/font&gt;&lt;/div&gt;" style="text;vsdxID=138;fillColor=none;gradientColor=none;strokeColor=none;spacingTop=3;spacingBottom=3;spacingLeft=23;spacingRight=3;points=[[0,0.5,0],[1,0.5,0]];labelBackgroundColor=none;rounded=0;html=1;whiteSpace=wrap;verticalAlign=middle;align=left;overflow=width;;html=1;" parent="mr3_9wPISB9tmNj83l86-99" vertex="1">
          <mxGeometry y="-0.52" width="254" height="39.52" as="geometry" />
        </mxCell>
        <UserObject label="" tags="Background" id="mr3_9wPISB9tmNj83l86-102">
          <mxCell style="vsdxID=141;fillColor=#5b9bd5;gradientColor=none;shape=stencil(dU9bDoAgDDvN/pEdwcc9TEBZRCCIr9sLWYzGxL92bbcOsF5MHzRIsaToJ72TSgawASnJGR0pZQTYAtaDj3qMfnWKeeiLs6DZb2XDwTlRElKczCrBvGOrJfey3uKPOYPnyEDWcse3/i2VR/wQthc=);dashed=1;dashPattern=2.00 2.00;strokeColor=#ffffff;points=[];labelBackgroundColor=none;rounded=0;html=1;whiteSpace=wrap;" parent="1" vertex="1">
            <mxGeometry x="568" y="785" width="254" height="1" as="geometry" />
          </mxCell>
        </UserObject>
        <UserObject label="" tags="Background" id="mr3_9wPISB9tmNj83l86-103">
          <mxCell style="vsdxID=142;fillColor=none;gradientColor=none;shape=stencil(zZJNDsIgEIVPw5IE4Qi1LnuHiZ22xArNgLa9vZCpUWvCwpW7efO++QmMMFUYYEKhVYjkLzjbNg7CHIXW1g1INqZImFqYqvOEPfmba1lPkMkcXf09d1i4TuUKrVZWB8X6xOho3Rv6NH+CC2gBBDonhzawgYZRWneJQie1SFhskOQjROvdhzcC9SjTFNmN0G+bsxVmxOkr/ed7lR52910peN1EEvuDSSk+NlM/AA==);strokeColor=none;spacingTop=3;spacingBottom=3;spacingLeft=23;spacingRight=3;points=[[0,0.5,0],[1,0.5,0]];labelBackgroundColor=none;rounded=0;html=1;whiteSpace=wrap;" parent="1" vertex="1">
            <mxGeometry x="568" y="666" width="254" height="39" as="geometry" />
          </mxCell>
        </UserObject>
        <mxCell id="mr3_9wPISB9tmNj83l86-104" value="&lt;div style=&quot;font-size: 1px&quot;&gt;&lt;font style=&quot;font-size:14.11px;font-family:Calibri;color:#5b9bd5;direction:ltr;letter-spacing:0px;line-height:120%;opacity:1&quot;&gt;Code&lt;br/&gt;&lt;/font&gt;&lt;/div&gt;" style="text;vsdxID=142;fillColor=none;gradientColor=none;strokeColor=none;spacingTop=3;spacingBottom=3;spacingLeft=23;spacingRight=3;points=[[0,0.5,0],[1,0.5,0]];labelBackgroundColor=none;rounded=0;html=1;whiteSpace=wrap;verticalAlign=middle;align=left;overflow=width;;html=1;" parent="mr3_9wPISB9tmNj83l86-103" vertex="1">
          <mxGeometry y="-0.52" width="254" height="39.52" as="geometry" />
        </mxCell>
        <UserObject label="" tags="Background" id="mr3_9wPISB9tmNj83l86-105">
          <mxCell style="vsdxID=145;fillColor=none;gradientColor=none;shape=stencil(zZJNDsIgEIVPw5IE4Qi1LnuHiZ22xArNgLa9vZCpUWvCwpW7efO++QmMMFUYYEKhVYjkLzjbNg7CHIXW1g1INqZImFqYqvOEPfmba1lPkMkcXf09d1i4TuUKrVZWB8X6xOho3Rv6NH+CC2gBBDonhzawgYZRWneJQie1SFhskOQjROvdhzcC9SjTFNmN0G+bsxVmxOkr/ed7lR52910peN1EEvuDSSk+NlM/AA==);strokeColor=none;spacingTop=3;spacingBottom=3;spacingLeft=23;spacingRight=3;points=[[0,0.5,0],[1,0.5,0]];labelBackgroundColor=none;rounded=0;html=1;whiteSpace=wrap;" parent="1" vertex="1">
            <mxGeometry x="568" y="745" width="254" height="39" as="geometry" />
          </mxCell>
        </UserObject>
        <mxCell id="mr3_9wPISB9tmNj83l86-106" value="&lt;div style=&quot;font-size: 1px&quot;&gt;&lt;font style=&quot;font-size:14.11px;font-family:Calibri;color:#5b9bd5;direction:ltr;letter-spacing:0px;line-height:120%;opacity:1&quot;&gt;ExchangeRateUSD&lt;br/&gt;&lt;/font&gt;&lt;/div&gt;" style="text;vsdxID=145;fillColor=none;gradientColor=none;strokeColor=none;spacingTop=3;spacingBottom=3;spacingLeft=23;spacingRight=3;points=[[0,0.5,0],[1,0.5,0]];labelBackgroundColor=none;rounded=0;html=1;whiteSpace=wrap;verticalAlign=middle;align=left;overflow=width;;html=1;" parent="mr3_9wPISB9tmNj83l86-105" vertex="1">
          <mxGeometry y="-0.52" width="254" height="39.52" as="geometry" />
        </mxCell>
        <UserObject label="" tags="Background" id="mr3_9wPISB9tmNj83l86-108">
          <mxCell style="vsdxID=162;fillColor=none;gradientColor=none;shape=stencil(zZJNDsIgEIVPw5IE4Qi1LnuHiZ22xArNgLa9vZCpUWvCwpW7efO++QmMMFUYYEKhVYjkLzjbNg7CHIXW1g1INqZImFqYqvOEPfmba1lPkMkcXf09d1i4TuUKrVZWB8X6xOho3Rv6NH+CC2gBBDonhzawgYZRWneJQie1SFhskOQjROvdhzcC9SjTFNmN0G+bsxVmxOkr/ed7lR52910peN1EEvuDSSk+NlM/AA==);strokeColor=none;spacingTop=3;spacingBottom=3;spacingLeft=23;spacingRight=3;points=[[0,0.5,0],[1,0.5,0]];labelBackgroundColor=none;rounded=0;html=1;whiteSpace=wrap;" parent="1" vertex="1">
            <mxGeometry x="568" y="706" width="254" height="39" as="geometry" />
          </mxCell>
        </UserObject>
        <mxCell id="mr3_9wPISB9tmNj83l86-109" value="&lt;div style=&quot;font-size: 1px&quot;&gt;&lt;font style=&quot;font-size:14.11px;font-family:Calibri;color:#5b9bd5;direction:ltr;letter-spacing:0px;line-height:120%;opacity:1&quot;&gt;Name&lt;br/&gt;&lt;/font&gt;&lt;/div&gt;" style="text;vsdxID=162;fillColor=none;gradientColor=none;strokeColor=none;spacingTop=3;spacingBottom=3;spacingLeft=23;spacingRight=3;points=[[0,0.5,0],[1,0.5,0]];labelBackgroundColor=none;rounded=0;html=1;whiteSpace=wrap;verticalAlign=middle;align=left;overflow=width;;html=1;" parent="mr3_9wPISB9tmNj83l86-108" vertex="1">
          <mxGeometry y="-0.52" width="254" height="39.52" as="geometry" />
        </mxCell>
        <UserObject label="" tags="Background" id="mr3_9wPISB9tmNj83l86-110">
          <mxCell style="vsdxID=165;fillColor=none;gradientColor=none;shape=stencil(zZJNDsIgEIVPw5IE4Qi1LnuHiZ22xArNgLa9vZCpUWvCwpW7efO++QmMMFUYYEKhVYjkLzjbNg7CHIXW1g1INqZImFqYqvOEPfmba1lPkMkcXf09d1i4TuUKrVZWB8X6xOho3Rv6NH+CC2gBBDonhzawgYZRWneJQie1SFhskOQjROvdhzcC9SjTFNmN0G+bsxVmxOkr/ed7lR52910peN1EEvuDSSk+NlM/AA==);strokeColor=none;spacingTop=3;spacingBottom=3;spacingLeft=23;spacingRight=3;points=[[0,0.5,0],[1,0.5,0]];labelBackgroundColor=none;rounded=0;html=1;whiteSpace=wrap;" parent="1" vertex="1">
            <mxGeometry x="972" y="706" width="254" height="39" as="geometry" />
          </mxCell>
        </UserObject>
        <mxCell id="mr3_9wPISB9tmNj83l86-111" style="vsdxID=166;fillColor=#2e75b5;gradientColor=none;shape=stencil(lZPbcoMgEIafhkt3OCq5TtP3YBJUplQcpI19+2BJp6KJE+/28P3LsrOL2HFoVa8RxUPw7kNfzSW0iL0hSk3Xam9CtBA7IXasndeNd1/dJfm9msjJ+nTfU4Ux6SieJBT/JFcKIIffyHuirelmtMhpgvFztqIg8toS5EbtFS8ISPGcl9VOPu+dc+B8Tit/jll/pwmpgCaB/6svoUyRO/N4GHgs1GiGwruggnFdxlrlG13Ep4raqiZLDVet+1X44VfIzlHRnaNa8wJEudFPCTQXlBQOGwKW0xUGVr1Oc8Ab9HKjCXD5Or3c/2j8n05trJ1nlkcWQ+lA2ekG);strokeColor=#ffffff;spacingTop=-3;spacingBottom=-3;spacingLeft=-3;spacingRight=-3;points=[[0,0.5,0],[1,0.5,0]];labelBackgroundColor=none;rounded=0;html=1;whiteSpace=wrap;" parent="mr3_9wPISB9tmNj83l86-110" vertex="1">
          <mxGeometry x="6" y="8" width="11" height="22" as="geometry" />
        </mxCell>
        <mxCell id="mr3_9wPISB9tmNj83l86-112" value="&lt;div style=&quot;font-size: 1px&quot;&gt;&lt;p style=&quot;text-align:left;margin-left:0;margin-right:0;margin-top:0px;margin-bottom:0px;text-indent:0;vertical-align:middle;direction:ltr;&quot;&gt;&lt;font style=&quot;font-size:14.11px;font-family:Calibri;color:#00b050;direction:ltr;letter-spacing:0px;line-height:120%;opacity:1&quot;&gt;FK&lt;/font&gt;&lt;font style=&quot;font-size:14.11px;font-family:Calibri;color:#00b050;direction:ltr;letter-spacing:0px;line-height:120%;opacity:1&quot;&gt;&lt;br/&gt;&lt;/font&gt;&lt;/p&gt;&lt;/div&gt;" style="verticalAlign=middle;align=left;overflow=width;vsdxID=167;fillColor=none;gradientColor=none;strokeColor=none;spacingTop=-3;spacingBottom=-3;spacingLeft=-3;spacingRight=-3;points=[[0,0.5,0],[1,0.5,0]];labelBackgroundColor=none;rounded=0;html=1;whiteSpace=wrap;" parent="mr3_9wPISB9tmNj83l86-110" vertex="1">
          <mxGeometry x="17" width="17" height="39" as="geometry" />
        </mxCell>
        <mxCell id="mr3_9wPISB9tmNj83l86-113" value="&lt;div style=&quot;font-size: 1px&quot;&gt;&lt;font style=&quot;font-size:14.11px;font-family:Calibri;color:#00b050;direction:ltr;letter-spacing:0px;line-height:120%;opacity:1&quot;&gt;CurrencyId&lt;br/&gt;&lt;/font&gt;&lt;/div&gt;" style="text;vsdxID=165;fillColor=none;gradientColor=none;strokeColor=none;spacingTop=3;spacingBottom=3;spacingLeft=23;spacingRight=3;points=[[0,0.5,0],[1,0.5,0]];labelBackgroundColor=none;rounded=0;html=1;whiteSpace=wrap;verticalAlign=middle;align=left;overflow=width;;html=1;" parent="mr3_9wPISB9tmNj83l86-110" vertex="1">
          <mxGeometry y="-0.52" width="254" height="39.52" as="geometry" />
        </mxCell>
        <UserObject label="" tags="Connector" id="mr3_9wPISB9tmNj83l86-115">
          <mxCell style="vsdxID=151;fillColor=none;gradientColor=none;edgeStyle=none;strokeColor=#5088bb;points=[[0.02,1,0],[0.98,6.83,0]];labelBackgroundColor=#ffffff;rounded=0;html=1;whiteSpace=wrap;startArrow=ERmandOne;endArrow=ERoneToMany;startSize=5;endSize=5;spacingTop=0;spacingBottom=0;spacingLeft=0;spacingRight=0;verticalAlign=middle;exitX=1;exitY=0.5128205128205128;exitDx=0;exitDy=0;exitPerimeter=0;entryX=0;entryY=0.5128205128205128;entryDx=0;entryDy=0;entryPerimeter=0;" parent="1" source="mr3_9wPISB9tmNj83l86-99" target="mr3_9wPISB9tmNj83l86-110" edge="1">
            <mxGeometry relative="1" as="geometry">
              <mxPoint y="45" as="offset" />
              <Array as="points">
                <mxPoint x="872.8" y="647" />
                <mxPoint x="872.8" y="726.03" />
              </Array>
            </mxGeometry>
          </mxCell>
        </UserObject>
        <UserObject label="" tags="Connector" id="mr3_9wPISB9tmNj83l86-117">
          <mxCell style="vsdxID=91;fillColor=none;gradientColor=none;edgeStyle=none;strokeColor=#5088bb;points=[[0.22,1,0],[0.22,28.36,0]];labelBackgroundColor=#ffffff;rounded=0;html=1;whiteSpace=wrap;startArrow=ERmandOne;endArrow=ERzeroToMany;startSize=5;endSize=5;spacingTop=0;spacingBottom=0;spacingLeft=0;spacingRight=0;verticalAlign=middle;exitX=0;exitY=0.48717948717948717;exitDx=0;exitDy=0;exitPerimeter=0;entryX=0;entryY=0.5128205128205128;entryDx=0;entryDy=0;entryPerimeter=0;" parent="1" target="mr3_9wPISB9tmNj83l86-63" edge="1">
            <mxGeometry relative="1" as="geometry">
              <mxPoint x="12" y="192" as="offset" />
              <Array as="points">
                <mxPoint x="339.2" y="88" />
                <mxPoint x="339.2" y="458.79999999999995" />
              </Array>
              <mxPoint x="390" y="87.99999999999977" as="sourcePoint" />
            </mxGeometry>
          </mxCell>
        </UserObject>
        <UserObject label="" tags="Connector" id="mr3_9wPISB9tmNj83l86-118">
          <mxCell style="vsdxID=96;fillColor=none;gradientColor=none;edgeStyle=none;strokeColor=#5088bb;points=[[0.2,1,0],[0.2,31.28,0]];labelBackgroundColor=#ffffff;rounded=0;html=1;whiteSpace=wrap;startArrow=ERmandOne;endArrow=ERzeroToMany;startSize=5;endSize=5;spacingTop=0;spacingBottom=0;spacingLeft=0;spacingRight=0;verticalAlign=middle;exitX=0;exitY=0.48717948717948717;exitDx=0;exitDy=0;exitPerimeter=0;entryX=0;entryY=0.5128205128205128;entryDx=0;entryDy=0;entryPerimeter=0;" parent="1" target="mr3_9wPISB9tmNj83l86-67" edge="1">
            <mxGeometry relative="1" as="geometry">
              <mxPoint x="12" y="211" as="offset" />
              <Array as="points">
                <mxPoint x="339.2" y="88" />
                <mxPoint x="339.2" y="498.30999999999995" />
              </Array>
              <mxPoint x="390" y="87.99999999999977" as="sourcePoint" />
            </mxGeometry>
          </mxCell>
        </UserObject>
        <UserObject label="" tags="Electrical Connector Entities Annotations" id="mr3_9wPISB9tmNj83l86-120">
          <mxCell parent="1" vertex="1" visible="0">
            <mxGeometry x="71" y="-364" as="geometry" />
          </mxCell>
        </UserObject>
        <mxCell id="k1rrF3iVC_dQ7wdKv6KE-2" value="" style="edgeStyle=orthogonalEdgeStyle;rounded=0;orthogonalLoop=1;jettySize=auto;html=1;" edge="1" parent="1" source="mr3_9wPISB9tmNj83l86-39">
          <mxGeometry relative="1" as="geometry">
            <mxPoint x="1045" y="61.24000000000001" as="targetPoint" />
          </mxGeometry>
        </mxCell>
      </root>
    </mxGraphModel>
  </diagram>
</mxfile>
